<?xml version="1.0" encoding="UTF-8" standalone="no"?>
<!-- Created with Inkscape (http://www.inkscape.org/) -->
<svg
   xmlns:dc="http://purl.org/dc/elements/1.1/"
   xmlns:cc="http://creativecommons.org/ns#"
   xmlns:rdf="http://www.w3.org/1999/02/22-rdf-syntax-ns#"
   xmlns:svg="http://www.w3.org/2000/svg"
   xmlns="http://www.w3.org/2000/svg"
   xmlns:sodipodi="http://sodipodi.sourceforge.net/DTD/sodipodi-0.dtd"
   xmlns:inkscape="http://www.inkscape.org/namespaces/inkscape"
   id="svg2"
   sodipodi:version="0.32"
   inkscape:version="0.46"
   width="48"
   height="32"
   version="1.0"
   sodipodi:docname="current source.svg"
   inkscape:output_extension="org.inkscape.output.svg.inkscape">
  <metadata
     id="metadata7">
    <rdf:RDF>
      <cc:Work
         rdf:about="">
        <dc:format>image/svg+xml</dc:format>
        <dc:type
           rdf:resource="http://purl.org/dc/dcmitype/StillImage" />
      </cc:Work>
    </rdf:RDF>
  </metadata>
  <defs
     id="defs5">
    <inkscape:perspective
       sodipodi:type="inkscape:persp3d"
       inkscape:vp_x="0 : 526.18109 : 1"
       inkscape:vp_y="0 : 1000 : 0"
       inkscape:vp_z="744.09448 : 526.18109 : 1"
       inkscape:persp3d-origin="372.04724 : 350.78739 : 1"
       id="perspective9" />
  </defs>
  <sodipodi:namedview
     inkscape:window-height="745"
     inkscape:window-width="1270"
     inkscape:pageshadow="2"
     inkscape:pageopacity="0.0"
     guidetolerance="10.0"
     gridtolerance="10.0"
     objecttolerance="10.0"
     borderopacity="1.0"
     bordercolor="#666666"
     pagecolor="#ffffff"
     id="base"
     showgrid="false"
     inkscape:zoom="11.270833"
     inkscape:cx="9.1829945"
     inkscape:cy="6.2550832"
     inkscape:window-x="0"
     inkscape:window-y="25"
     inkscape:current-layer="svg2" />
  <path
     style="fill:#000000"
     d="M 18.130173,23.45608 C 16.467371,22.056925 14.81521,19.993139 14.458705,18.86989 C 13.876371,17.03512 13.134324,16.861778 7.1552572,17.163811 C 1.7567222,17.436518 0.50000019,17.216754 0.50000019,16.000001 C 0.50000019,14.783248 1.7567222,14.563484 7.1552572,14.836191 C 13.134324,15.138224 13.876371,14.964882 14.458705,13.130112 C 15.451953,10.000661 20.805515,5.9999997 24,5.9999997 C 27.194485,5.9999997 32.548047,10.000661 33.541295,13.130112 C 34.123629,14.964882 34.865676,15.138224 40.844743,14.836191 C 46.243278,14.563484 47.5,14.783248 47.5,16.000001 C 47.5,17.216754 46.243278,17.436518 40.844743,17.163811 C 34.865676,16.861778 34.123629,17.03512 33.541295,18.86989 C 32.548047,21.999339 27.194485,26 24,26 C 22.40953,26 19.819387,24.87746 18.130173,23.45608 z M 29.545455,21.545456 C 34.505647,16.585263 30.990875,7.9999997 24,7.9999997 C 17.009125,7.9999997 13.494353,16.585263 18.454545,21.545456 C 20.001783,23.092692 22.051627,24 24,24 C 25.948373,24 27.998217,23.092692 29.545455,21.545456 z M 26,18.214287 C 26,17.493198 24.578431,17.000001 22.5,17.000001 C 20.575,17.000001 19,16.550001 19,16.000001 C 19,15.450001 20.575,15.000001 22.5,15.000001 C 24.578431,15.000001 26,14.506804 26,13.785715 C 26,13.027779 26.644258,13.215687 27.714286,14.285715 C 29.333333,15.904763 29.333333,16.095239 27.714286,17.714287 C 26.644258,18.784315 26,18.972223 26,18.214287 z M 3.0000002,16.000001 C 3.0000002,15.450001 2.5500002,15.000001 2.0000002,15.000001 C 1.4500002,15.000001 1.0000002,15.450001 1.0000002,16.000001 C 1.0000002,16.550001 1.4500002,17.000001 2.0000002,17.000001 C 2.5500002,17.000001 3.0000002,16.550001 3.0000002,16.000001 z M 47,16.000001 C 47,15.450001 46.55,15.000001 46,15.000001 C 45.45,15.000001 45,15.450001 45,16.000001 C 45,16.550001 45.45,17.000001 46,17.000001 C 46.55,17.000001 47,16.550001 47,16.000001 z"
     id="path2384" />
</svg>
