<?xml version="1.0" encoding="UTF-8" standalone="no"?>
<!-- Created with Inkscape (http://www.inkscape.org/) -->
<svg
   xmlns:dc="http://purl.org/dc/elements/1.1/"
   xmlns:cc="http://creativecommons.org/ns#"
   xmlns:rdf="http://www.w3.org/1999/02/22-rdf-syntax-ns#"
   xmlns:svg="http://www.w3.org/2000/svg"
   xmlns="http://www.w3.org/2000/svg"
   xmlns:sodipodi="http://sodipodi.sourceforge.net/DTD/sodipodi-0.dtd"
   xmlns:inkscape="http://www.inkscape.org/namespaces/inkscape"
   id="svg2"
   sodipodi:version="0.32"
   inkscape:version="0.46"
   width="48"
   height="32"
   version="1.0"
   sodipodi:docname="ground earth.svg"
   inkscape:output_extension="org.inkscape.output.svg.inkscape">
  <metadata
     id="metadata7">
    <rdf:RDF>
      <cc:Work
         rdf:about="">
        <dc:format>image/svg+xml</dc:format>
        <dc:type
           rdf:resource="http://purl.org/dc/dcmitype/StillImage" />
      </cc:Work>
    </rdf:RDF>
  </metadata>
  <defs
     id="defs5">
    <inkscape:perspective
       sodipodi:type="inkscape:persp3d"
       inkscape:vp_x="0 : 526.18109 : 1"
       inkscape:vp_y="0 : 1000 : 0"
       inkscape:vp_z="744.09448 : 526.18109 : 1"
       inkscape:persp3d-origin="372.04724 : 350.78739 : 1"
       id="perspective9" />
  </defs>
  <sodipodi:namedview
     inkscape:window-height="745"
     inkscape:window-width="1270"
     inkscape:pageshadow="2"
     inkscape:pageopacity="0.0"
     guidetolerance="10.0"
     gridtolerance="10.0"
     objecttolerance="10.0"
     borderopacity="1.0"
     bordercolor="#666666"
     pagecolor="#ffffff"
     id="base"
     showgrid="false"
     inkscape:zoom="11.270833"
     inkscape:cx="24"
     inkscape:cy="9.8040665"
     inkscape:window-x="0"
     inkscape:window-y="25"
     inkscape:current-layer="svg2" />
  <path
     style="fill:#000000"
     d="M 22,27.75 C 22,27.2 22.9,26.75 24,26.75 C 25.1,26.75 26,27.2 26,27.75 C 26,28.3 25.1,28.75 24,28.75 C 22.9,28.75 22,28.3 22,27.75 z M 19,24.75 C 19,24.2 21.25,23.75 24,23.75 C 26.75,23.75 29,24.2 29,24.75 C 29,25.3 26.75,25.75 24,25.75 C 21.25,25.75 19,25.3 19,24.75 z M 16,21.75 C 16,21.2 17.613183,20.75 19.58485,20.75 L 23.169701,20.75 L 22.867281,12 C 22.622725,4.924166 22.839451,3.25 24,3.25 C 25.160549,3.25 25.377275,4.924166 25.132719,12 L 24.830299,20.75 L 28.41515,20.75 C 30.386817,20.75 32,21.2 32,21.75 C 32,22.333333 28.666667,22.75 24,22.75 C 19.333333,22.75 16,22.333333 16,21.75 z M 25,4.75 C 25,4.2 24.55,3.75 24,3.75 C 23.45,3.75 23,4.2 23,4.75 C 23,5.3 23.45,5.75 24,5.75 C 24.55,5.75 25,5.3 25,4.75 z"
     id="path2384" />
</svg>
