<?xml version="1.0" encoding="UTF-8" standalone="no"?>
<!-- Created with Inkscape (http://www.inkscape.org/) -->

<svg
   xmlns:dc="http://purl.org/dc/elements/1.1/"
   xmlns:cc="http://creativecommons.org/ns#"
   xmlns:rdf="http://www.w3.org/1999/02/22-rdf-syntax-ns#"
   xmlns:svg="http://www.w3.org/2000/svg"
   xmlns="http://www.w3.org/2000/svg"
   xmlns:sodipodi="http://sodipodi.sourceforge.net/DTD/sodipodi-0.dtd"
   xmlns:inkscape="http://www.inkscape.org/namespaces/inkscape"
   version="1.1"
   width="47.367664"
   height="33.457539"
   id="svg2"
   inkscape:version="0.47 r22583"
   sodipodi:docname="mutualinductance.svg">
  <metadata
     id="metadata7">
    <rdf:RDF>
      <cc:Work
         rdf:about="">
        <dc:format>image/svg+xml</dc:format>
        <dc:type
           rdf:resource="http://purl.org/dc/dcmitype/StillImage" />
      </cc:Work>
    </rdf:RDF>
  </metadata>
  <sodipodi:namedview
     pagecolor="#ffffff"
     bordercolor="#666666"
     borderopacity="1"
     objecttolerance="10"
     gridtolerance="10"
     guidetolerance="10"
     inkscape:pageopacity="0"
     inkscape:pageshadow="2"
     inkscape:window-width="1280"
     inkscape:window-height="733"
     id="namedview5"
     showgrid="false"
     inkscape:zoom="8.2944672"
     inkscape:cx="-3.6382874"
     inkscape:cy="15.165354"
     inkscape:window-x="-4"
     inkscape:window-y="21"
     inkscape:window-maximized="1"
     inkscape:current-layer="svg2" />
  <defs
     id="defs6">
    <inkscape:perspective
       sodipodi:type="inkscape:persp3d"
       inkscape:vp_x="0 : 15.552536 : 1"
       inkscape:vp_y="0 : 1000 : 0"
       inkscape:vp_z="47.367668 : 15.552536 : 1"
       inkscape:persp3d-origin="23.683834 : 10.368357 : 1"
       id="perspective9" />
    <inkscape:perspective
       id="perspective2828"
       inkscape:persp3d-origin="0.5 : 0.33333333 : 1"
       inkscape:vp_z="1 : 0.5 : 1"
       inkscape:vp_y="0 : 1000 : 0"
       inkscape:vp_x="0 : 0.5 : 1"
       sodipodi:type="inkscape:persp3d" />
    <inkscape:perspective
       id="perspective2879"
       inkscape:persp3d-origin="0.5 : 0.33333333 : 1"
       inkscape:vp_z="1 : 0.5 : 1"
       inkscape:vp_y="0 : 1000 : 0"
       inkscape:vp_x="0 : 0.5 : 1"
       sodipodi:type="inkscape:persp3d" />
  </defs>
  <path
     d="m 0.36868159,32.757462 c -1.231319,-1.992316 0.457666,-2.470795 7.56298301,-2.142547 6.8313294,0.31559 6.9360024,0.282393 6.9360024,-2.199784 0,-1.852203 0.596385,-2.60491 2.25,-2.839761 3.189613,-0.452997 3.005791,-4.035165 -0.25,-4.871807 l -2.5,-0.642426 2.5,-0.402659 c 1.6768,-0.270071 2.5,-1.046374 2.5,-2.357574 0,-1.247263 -0.904966,-2.187464 -2.5,-2.597341 l -2.5,-0.642426 2.5,-0.402659 c 3.297322,-0.531079 3.494808,-4.2613743 0.25,-4.7222103 -1.485385,-0.210958 -2.25,-1.006077 -2.25,-2.339761 0,-1.8719784 -0.531964,-1.9956345 -7.2500004,-1.685278 -5.91671,0.273337 -7.25000001,0.059967 -7.25000001,-1.1602391 0,-0.8223439 0.5625,-1.4501708 1.25000001,-1.3951708 0.6875,0.055 4.175,0.1675 7.75,0.25 6.2266674,0.1436923 6.5000004,0.2551282 6.5000004,2.6499999 0,1.456794 0.57483,2.5 1.377555,2.5 2.350944,0 4.151301,2.9380373 2.958806,4.8285333 -0.733948,1.16355 -0.724082,2.179019 0.03295,3.391218 0.783856,1.255154 0.763897,2.047042 -0.07268,2.88362 -0.854952,0.854952 -0.864038,1.616455 -0.03512,2.943758 1.263763,2.023615 -0.44188,4.952871 -2.883956,4.952871 -0.86395,0 -1.377555,1.118514 -1.377555,3 0,2.995393 -0.0091,3 -5.9182134,3 -3.255017,0 -6.584499,0.255678 -7.398849,0.568174 -0.81435,0.312495 -1.79621601,0.05756 -2.18192301,-0.566531 z M 2.8676666,31.755819 c 0,-0.55 -0.45,-1 -1,-1 -0.55,0 -1.00000001,0.45 -1.00000001,1 0,0.55 0.45000001,1 1.00000001,1 0.55,0 1,-0.45 1,-1 z m 0,-28.0000003 c 0,-0.55 -0.45,-0.9999999 -1,-0.9999999 -0.55,0 -1.00000001,0.4499999 -1.00000001,0.9999999 0,0.55 0.45000001,1 1.00000001,1 0.55,0 1,-0.45 1,-1 z M 39.117666,33.005277 c -6.177447,-0.340889 -6.249999,-0.379164 -6.249999,-3.297175 0,-1.840956 -0.518553,-2.952283 -1.377555,-2.952283 -2.442076,0 -4.147719,-2.929256 -2.88395,-4.952871 0.829245,-1.327834 0.819507,-2.089127 -0.03769,-2.946322 -0.839867,-0.839867 -0.859736,-1.625299 -0.07268,-2.873041 0.758067,-1.201786 0.769379,-2.219652 0.03769,-3.391275 -1.18904,-1.903954 0.60367,-4.8364913 2.95663,-4.8364913 0.802725,0 1.377555,-1.043206 1.377555,-2.5 0,-2.3722221 0.306667,-2.5076666 5.999999,-2.6499999 3.3,-0.0825 6.5625,-0.195 7.25,-0.25 0.6875,-0.055 1.25,0.575 1.25,1.3999999 0,1.21887 -1.265083,1.436078 -6.75,1.158937 -6.219754,-0.3142702 -6.749999,-0.1822626 -6.749999,1.680449 0,1.335034 -0.764069,2.130027 -2.25,2.341063 -3.189613,0.452997 -3.005791,4.0351653 0.25,4.8718073 l 2.499999,0.642426 -2.499999,0.402659 c -1.6768,0.270071 -2.5,1.046374 -2.5,2.357574 0,1.247263 0.904966,2.187464 2.5,2.597341 l 2.499999,0.642426 -2.499999,0.402659 c -3.297322,0.531079 -3.494808,4.261374 -0.25,4.72221 1.653965,0.234901 2.25,0.98751 2.25,2.841063 0,2.479996 0.111135,2.515896 6.749999,2.180449 5.317363,-0.268675 6.75,-0.04039 6.75,1.075604 0,1.713295 -0.344917,1.769017 -8.25,1.332791 z m 7.75,-1.249458 c 0,-0.55 -0.45,-1 -1,-1 -0.55,0 -1,0.45 -1,1 0,0.55 0.45,1 1,1 0.55,0 1,-0.45 1,-1 z m 0,-28.0000003 c 0,-0.55 -0.45,-0.9999999 -1,-0.9999999 -0.55,0 -1,0.4499999 -1,0.9999999 0,0.55 0.45,1 1,1 0.55,0 1,-0.45 1,-1 z M 23.232898,17.255819 c -0.0026,-5.5 0.163194,-7.8775853 0.368439,-5.283522 0.205246,2.594063 0.207376,7.094063 0.0047,10 -0.202607,2.905937 -0.370536,0.783522 -0.373139,-4.716478 z m 2,0 c -0.0026,-5.5 0.163194,-7.8775853 0.368439,-5.283522 0.205246,2.594063 0.207376,7.094063 0.0047,10 -0.202607,2.905937 -0.370536,0.783522 -0.373139,-4.716478 z"
     id="path2818"
     style="fill:#000000" />
  <g
     id="g2857"
     transform="translate(2.5081526,1.0311024)">
    <text
       sodipodi:linespacing="100%"
       id="text2812"
       y="18.255898"
       x="4.2196803"
       style="font-size:6px;font-style:normal;font-variant:normal;font-weight:normal;font-stretch:normal;text-indent:0;text-align:start;text-decoration:none;line-height:100%;letter-spacing:normal;word-spacing:normal;text-transform:none;direction:ltr;block-progression:tb;writing-mode:lr-tb;text-anchor:start;color:#000000;fill:#000000;fill-opacity:1;fill-rule:nonzero;stroke:#000000;stroke-width:0.17;stroke-linecap:butt;stroke-linejoin:miter;stroke-miterlimit:4;stroke-opacity:1;stroke-dasharray:none;stroke-dashoffset:0;marker:none;visibility:visible;display:inline;overflow:visible;enable-background:accumulate;font-family:Utopia;-inkscape-font-specification:Utopia"
       xml:space="preserve"><tspan
         y="18.255898"
         x="4.2196803"
         id="tspan2814"
         sodipodi:role="line">L</tspan></text>
    <text
       sodipodi:linespacing="100%"
       id="text2816"
       y="18.723898"
       x="7.6856804"
       style="font-size:4px;font-style:normal;font-variant:normal;font-weight:normal;font-stretch:normal;text-indent:0;text-align:start;text-decoration:none;line-height:100%;letter-spacing:normal;word-spacing:normal;text-transform:none;direction:ltr;block-progression:tb;writing-mode:lr-tb;text-anchor:start;color:#000000;fill:#000000;fill-opacity:1;fill-rule:nonzero;stroke:#000000;stroke-width:0.17;stroke-linecap:butt;stroke-linejoin:miter;stroke-miterlimit:4;stroke-opacity:1;stroke-dasharray:none;stroke-dashoffset:0;marker:none;visibility:visible;display:inline;overflow:visible;enable-background:accumulate;font-family:Utopia;-inkscape-font-specification:Utopia"
       xml:space="preserve"><tspan
         y="18.723898"
         x="7.6856804"
         id="tspan2818"
         sodipodi:role="line">p</tspan></text>
  </g>
  <g
     id="g2851"
     transform="translate(60.497423,-0.63827091)">
    <text
       sodipodi:linespacing="100%"
       id="text2812-0"
       y="20.361271"
       x="-23.45159"
       style="font-size:6px;font-style:normal;font-variant:normal;font-weight:normal;font-stretch:normal;text-indent:0;text-align:start;text-decoration:none;line-height:100%;letter-spacing:normal;word-spacing:normal;text-transform:none;direction:ltr;block-progression:tb;writing-mode:lr-tb;text-anchor:start;color:#000000;fill:#000000;fill-opacity:1;fill-rule:nonzero;stroke:#000000;stroke-width:0.17;stroke-linecap:butt;stroke-linejoin:miter;stroke-miterlimit:4;stroke-opacity:1;stroke-dasharray:none;stroke-dashoffset:0;marker:none;visibility:visible;display:inline;overflow:visible;enable-background:accumulate;font-family:Utopia;-inkscape-font-specification:Utopia"
       xml:space="preserve"><tspan
         y="20.361271"
         x="-23.45159"
         id="tspan2814-4"
         sodipodi:role="line">L</tspan></text>
    <text
       sodipodi:linespacing="100%"
       id="text2816-2"
       y="20.829271"
       x="-19.98559"
       style="font-size:4px;font-style:normal;font-variant:normal;font-weight:normal;font-stretch:normal;text-indent:0;text-align:start;text-decoration:none;line-height:100%;letter-spacing:normal;word-spacing:normal;text-transform:none;direction:ltr;block-progression:tb;writing-mode:lr-tb;text-anchor:start;color:#000000;fill:#000000;fill-opacity:1;fill-rule:nonzero;stroke:#000000;stroke-width:0.17;stroke-linecap:butt;stroke-linejoin:miter;stroke-miterlimit:4;stroke-opacity:1;stroke-dasharray:none;stroke-dashoffset:0;marker:none;visibility:visible;display:inline;overflow:visible;enable-background:accumulate;font-family:Utopia;-inkscape-font-specification:Utopia"
       xml:space="preserve"><tspan
         y="20.829271"
         x="-19.98559"
         id="tspan2818-9"
         sodipodi:role="line">s</tspan></text>
  </g>
  <text
     xml:space="preserve"
     style="font-size:6px;font-style:normal;font-variant:normal;font-weight:normal;font-stretch:normal;text-indent:0;text-align:start;text-decoration:none;line-height:100%;letter-spacing:normal;word-spacing:normal;text-transform:none;direction:ltr;block-progression:tb;writing-mode:lr-tb;text-anchor:start;color:#000000;fill:#000000;fill-opacity:1;fill-rule:nonzero;stroke:#000000;stroke-width:0.17;stroke-linecap:butt;stroke-linejoin:miter;stroke-miterlimit:4;stroke-opacity:1;stroke-dasharray:none;stroke-dashoffset:0;marker:none;visibility:visible;display:inline;overflow:visible;enable-background:accumulate;font-family:Utopia;-inkscape-font-specification:Utopia"
     x="22.565832"
     y="4.237"
     id="text2863"
     sodipodi:linespacing="100%"><tspan
       sodipodi:role="line"
       id="tspan2865"
       x="22.565832"
       y="4.237"
       style="stroke-width:0.17">K</tspan></text>
</svg>
