<?xml version="1.0" encoding="UTF-8" standalone="no"?>
<!-- Created with Inkscape (http://www.inkscape.org/) -->

<svg
   xmlns:dc="http://purl.org/dc/elements/1.1/"
   xmlns:cc="http://creativecommons.org/ns#"
   xmlns:rdf="http://www.w3.org/1999/02/22-rdf-syntax-ns#"
   xmlns:svg="http://www.w3.org/2000/svg"
   xmlns="http://www.w3.org/2000/svg"
   xmlns:sodipodi="http://sodipodi.sourceforge.net/DTD/sodipodi-0.dtd"
   xmlns:inkscape="http://www.inkscape.org/namespaces/inkscape"
   id="svg2"
   sodipodi:version="0.32"
   inkscape:version="0.48.4 r9939"
   width="48"
   height="16"
   version="1.0"
   sodipodi:docname="resistor.svg"
   inkscape:output_extension="org.inkscape.output.svg.inkscape"
   inkscape:export-filename="D:\Dev\QSapecNG-2.0.0-source\src\gui\images\symbols\resistor.png"
   inkscape:export-xdpi="90"
   inkscape:export-ydpi="90">
  <metadata
     id="metadata7">
    <rdf:RDF>
      <cc:Work
         rdf:about="">
        <dc:format>image/svg+xml</dc:format>
        <dc:type
           rdf:resource="http://purl.org/dc/dcmitype/StillImage" />
        <dc:title></dc:title>
      </cc:Work>
    </rdf:RDF>
  </metadata>
  <defs
     id="defs5">
    <inkscape:perspective
       sodipodi:type="inkscape:persp3d"
       inkscape:vp_x="0 : 526.18109 : 1"
       inkscape:vp_y="0 : 1000 : 0"
       inkscape:vp_z="744.09448 : 526.18109 : 1"
       inkscape:persp3d-origin="372.04724 : 350.78739 : 1"
       id="perspective9" />
  </defs>
  <sodipodi:namedview
     inkscape:window-height="745"
     inkscape:window-width="1270"
     inkscape:pageshadow="2"
     inkscape:pageopacity="0.0"
     guidetolerance="10.0"
     gridtolerance="10.0"
     objecttolerance="10.0"
     borderopacity="1.0"
     bordercolor="#666666"
     pagecolor="#ffffff"
     id="base"
     showgrid="false"
     inkscape:zoom="11.270833"
     inkscape:cx="24"
     inkscape:cy="12.348561"
     inkscape:window-x="0"
     inkscape:window-y="25"
     inkscape:current-layer="svg2"
     inkscape:window-maximized="0" />
  <path
     style="fill:#000000"
     d="M 16,10 C 14.68856,6.833903 13.997988,6.427305 12.45,7.909818 C 11.9275,8.410217 9.025,8.972717 6,9.159818 C 1.626585,9.430319 0.5,9.192749 0.5,8 C 0.5,6.816107 1.593103,6.571076 5.687022,6.837274 C 10.073764,7.122512 11.07516,6.852513 12.177569,5.087274 C 13.917111,2.301825 14.528651,2.447849 16,6 C 16.683452,7.65 17.583452,9 18,9 C 18.416548,9 19.316548,7.65 20,6 C 20.683452,4.35 21.583452,3 22,3 C 22.416548,3 23.316548,4.35 24,6 C 24.683452,7.65 25.583452,9 26,9 C 26.416548,9 27.316548,7.65 28,6 C 28.683452,4.35 29.583452,3 30,3 C 30.416548,3 31.316548,4.35 32,6 C 33.31144,9.166097 34.002012,9.572695 35.55,8.090182 C 36.0725,7.589783 38.975,7.027283 42,6.840182 C 46.373414,6.569681 47.5,6.807251 47.5,8 C 47.5,9.183893 46.406897,9.428924 42.312977,9.162726 C 37.926236,8.877488 36.92484,9.147487 35.822431,10.912726 C 34.082889,13.698175 33.471349,13.552151 32,10 C 31.316548,8.35 30.416548,7 30,7 C 29.583452,7 28.683452,8.35 28,10 C 27.316548,11.65 26.416548,13 26,13 C 25.583452,13 24.683452,11.65 24,10 C 23.316548,8.35 22.416548,7 22,7 C 21.583452,7 20.683452,8.35 20,10 C 19.316548,11.65 18.416548,13 18,13 C 17.583452,13 16.683452,11.65 16,10 z M 3,8 C 3,7.45 2.55,7 2,7 C 1.45,7 1,7.45 1,8 C 1,8.55 1.45,9 2,9 C 2.55,9 3,8.55 3,8 z M 47,8 C 47,7.45 46.55,7 46,7 C 45.45,7 45,7.45 45,8 C 45,8.55 45.45,9 46,9 C 46.55,9 47,8.55 47,8 z"
     id="path2400" />
</svg>
