<?xml version="1.0" encoding="UTF-8" standalone="no"?>
<!-- Created with Inkscape (http://www.inkscape.org/) -->

<svg
   xmlns:svg="http://www.w3.org/2000/svg"
   xmlns="http://www.w3.org/2000/svg"
   version="1.1"
   width="48"
   height="32"
   id="svg2">
  <defs
     id="defs6" />
  <path
     d="m 14.208333,27.629988 c 0,-2.481003 -0.627712,-2.690241 -6.8541663,-2.284722 C 1.9335444,25.698302 0.5,25.382083 0.5,23.833333 c 0,-1.548749 1.4335444,-1.864969 6.8541667,-1.511932 6.3124103,0.411117 6.8541663,0.221046 6.8541663,-2.404734 0,-2.625781 -0.541756,-2.815851 -6.8541663,-2.404734 C 1.9335444,17.864969 0.5,17.548749 0.5,16 c 0,-1.548749 1.4335444,-1.864969 6.8541667,-1.511933 6.3124103,0.411117 6.8541663,0.221047 6.8541663,-2.404734 0,-2.62578 -0.541756,-2.8158506 -6.8541663,-2.4047338 C 1.9335444,10.031636 0.5,9.7154159 0.5,8.1666667 0.5,6.6179174 1.9335444,6.3016975 7.3541667,6.6547341 13.580621,7.0602527 14.208333,6.8510153 14.208333,4.3700119 c 0,-2.5283611 0.726948,-2.731123 9.791667,-2.731123 9.064719,0 9.791667,0.2027619 9.791667,2.731123 0,2.4810034 0.627712,2.6902408 6.854166,2.2847222 C 46.066456,6.3016975 47.5,6.6179174 47.5,8.1666667 c 0,1.5487492 -1.433544,1.8649693 -6.854167,1.5119325 -6.31241,-0.4111168 -6.854166,-0.2210462 -6.854166,2.4047338 0,2.625781 0.541756,2.815851 6.854166,2.404734 C 46.066456,14.135031 47.5,14.451251 47.5,16 c 0,1.548749 -1.433544,1.864969 -6.854167,1.511933 -6.31241,-0.411117 -6.854166,-0.221047 -6.854166,2.404734 0,2.62578 0.541756,2.815851 6.854166,2.404734 C 46.066456,21.968364 47.5,22.284584 47.5,23.833333 c 0,1.54875 -1.433544,1.864969 -6.854167,1.511933 -6.226454,-0.405519 -6.854166,-0.196281 -6.854166,2.284722 0,2.528361 -0.726948,2.731123 -9.791667,2.731123 -9.064719,0 -9.791667,-0.202762 -9.791667,-2.731123 z M 32.486111,16 l 0,-13.0555556 -8.486111,0 -8.486111,0 0,13.0555556 0,13.055556 8.486111,0 8.486111,0 0,-13.055556 z M 18.125,23.833333 c 0,-2.22428 0.870371,-2.611111 5.875,-2.611111 5.004629,0 5.875,0.386831 5.875,2.611111 0,2.224281 -0.870371,2.611111 -5.875,2.611111 -5.004629,0 -5.875,-0.38683 -5.875,-2.611111 z m 5.222222,0 c 0,-0.718055 -0.88125,-1.305555 -1.958333,-1.305555 -1.077083,0 -1.958333,0.5875 -1.958333,1.305555 0,0.718056 0.88125,1.305556 1.958333,1.305556 1.077083,0 1.958333,-0.5875 1.958333,-1.305556 z m 5.222222,0 c 0,-0.718055 -0.88125,-1.305555 -1.958333,-1.305555 -1.077083,0 -1.958333,0.5875 -1.958333,1.305555 0,0.718056 0.88125,1.305556 1.958333,1.305556 1.077083,0 1.958333,-0.5875 1.958333,-1.305556 z M 18.125,16 c 0,-2.22428 0.870371,-2.611111 5.875,-2.611111 5.004629,0 5.875,0.386831 5.875,2.611111 0,2.22428 -0.870371,2.611111 -5.875,2.611111 -5.004629,0 -5.875,-0.386831 -5.875,-2.611111 z m 5.222222,0 c 0,-0.718056 -0.88125,-1.305556 -1.958333,-1.305556 -1.077083,0 -1.958333,0.5875 -1.958333,1.305556 0,0.718056 0.88125,1.305556 1.958333,1.305556 1.077083,0 1.958333,-0.5875 1.958333,-1.305556 z m 5.222222,0 c 0,-0.718056 -0.88125,-1.305556 -1.958333,-1.305556 -1.077083,0 -1.958333,0.5875 -1.958333,1.305556 0,0.718056 0.88125,1.305556 1.958333,1.305556 1.077083,0 1.958333,-0.5875 1.958333,-1.305556 z M 18.125,8.1666667 c 0,-2.2242803 0.870371,-2.6111111 5.875,-2.6111111 5.004629,0 5.875,0.3868308 5.875,2.6111111 0,2.2242803 -0.870371,2.6111113 -5.875,2.6111113 -5.004629,0 -5.875,-0.386831 -5.875,-2.6111113 z m 5.222222,0 c 0,-0.7180556 -0.88125,-1.3055556 -1.958333,-1.3055556 -1.077083,0 -1.958333,0.5875 -1.958333,1.3055556 0,0.7180555 0.88125,1.3055555 1.958333,1.3055555 1.077083,0 1.958333,-0.5875 1.958333,-1.3055555 z m 5.222222,0 c 0,-0.7180556 -0.88125,-1.3055556 -1.958333,-1.3055556 -1.077083,0 -1.958333,0.5875 -1.958333,1.3055556 0,0.7180555 0.88125,1.3055555 1.958333,1.3055555 1.077083,0 1.958333,-0.5875 1.958333,-1.3055555 z M 3.7638889,23.833333 c 0,-0.718055 -0.5875,-1.305555 -1.3055556,-1.305555 -0.7180555,0 -1.3055555,0.5875 -1.3055555,1.305555 0,0.718056 0.5875,1.305556 1.3055555,1.305556 0.7180556,0 1.3055556,-0.5875 1.3055556,-1.305556 z m 43.0833331,0 c 0,-0.718055 -0.5875,-1.305555 -1.305555,-1.305555 -0.718056,0 -1.305556,0.5875 -1.305556,1.305555 0,0.718056 0.5875,1.305556 1.305556,1.305556 0.718055,0 1.305555,-0.5875 1.305555,-1.305556 z M 3.7638889,16 c 0,-0.718056 -0.5875,-1.305556 -1.3055556,-1.305556 -0.7180555,0 -1.3055555,0.5875 -1.3055555,1.305556 0,0.718056 0.5875,1.305556 1.3055555,1.305556 0.7180556,0 1.3055556,-0.5875 1.3055556,-1.305556 z m 43.0833331,0 c 0,-0.718056 -0.5875,-1.305556 -1.305555,-1.305556 -0.718056,0 -1.305556,0.5875 -1.305556,1.305556 0,0.718056 0.5875,1.305556 1.305556,1.305556 0.718055,0 1.305555,-0.5875 1.305555,-1.305556 z M 3.7638889,8.1666667 c 0,-0.7180556 -0.5875,-1.3055556 -1.3055556,-1.3055556 -0.7180555,0 -1.3055555,0.5875 -1.3055555,1.3055556 0,0.7180555 0.5875,1.3055555 1.3055555,1.3055555 0.7180556,0 1.3055556,-0.5875 1.3055556,-1.3055555 z m 43.0833331,0 c 0,-0.7180556 -0.5875,-1.3055556 -1.305555,-1.3055556 -0.718056,0 -1.305556,0.5875 -1.305556,1.3055556 0,0.7180555 0.5875,1.3055555 1.305556,1.3055555 0.718055,0 1.305555,-0.5875 1.305555,-1.3055555 z"
     id="path2818"
     style="fill:#000000" />
</svg>
