<?xml version="1.0" encoding="UTF-8" standalone="no"?>
<!-- Created with Inkscape (http://www.inkscape.org/) -->

<svg
   xmlns:dc="http://purl.org/dc/elements/1.1/"
   xmlns:cc="http://creativecommons.org/ns#"
   xmlns:rdf="http://www.w3.org/1999/02/22-rdf-syntax-ns#"
   xmlns:svg="http://www.w3.org/2000/svg"
   xmlns="http://www.w3.org/2000/svg"
   xmlns:sodipodi="http://sodipodi.sourceforge.net/DTD/sodipodi-0.dtd"
   xmlns:inkscape="http://www.inkscape.org/namespaces/inkscape"
   id="svg2"
   sodipodi:version="0.32"
   inkscape:version="0.47 r22583"
   width="48"
   height="32"
   version="1.0"
   sodipodi:docname="vccs.svg"
   inkscape:output_extension="org.inkscape.output.svg.inkscape"
   inkscape:export-filename="/home/skypjack/projects/qsapecng/src/gui/images/symbols/vccs.png"
   inkscape:export-xdpi="90"
   inkscape:export-ydpi="90">
  <metadata
     id="metadata7">
    <rdf:RDF>
      <cc:Work
         rdf:about="">
        <dc:format>image/svg+xml</dc:format>
        <dc:type
           rdf:resource="http://purl.org/dc/dcmitype/StillImage" />
        <dc:title></dc:title>
      </cc:Work>
    </rdf:RDF>
  </metadata>
  <defs
     id="defs5">
    <inkscape:perspective
       sodipodi:type="inkscape:persp3d"
       inkscape:vp_x="0 : 526.18109 : 1"
       inkscape:vp_y="0 : 1000 : 0"
       inkscape:vp_z="744.09448 : 526.18109 : 1"
       inkscape:persp3d-origin="372.04724 : 350.78739 : 1"
       id="perspective9" />
    <inkscape:perspective
       id="perspective22"
       inkscape:persp3d-origin="0.5 : 0.33333333 : 1"
       inkscape:vp_z="1 : 0.5 : 1"
       inkscape:vp_y="0 : 1000 : 0"
       inkscape:vp_x="0 : 0.5 : 1"
       sodipodi:type="inkscape:persp3d" />
    <inkscape:perspective
       id="perspective94"
       inkscape:persp3d-origin="0.5 : 0.33333333 : 1"
       inkscape:vp_z="1 : 0.5 : 1"
       inkscape:vp_y="0 : 1000 : 0"
       inkscape:vp_x="0 : 0.5 : 1"
       sodipodi:type="inkscape:persp3d" />
    <inkscape:perspective
       id="perspective116"
       inkscape:persp3d-origin="0.5 : 0.33333333 : 1"
       inkscape:vp_z="1 : 0.5 : 1"
       inkscape:vp_y="0 : 1000 : 0"
       inkscape:vp_x="0 : 0.5 : 1"
       sodipodi:type="inkscape:persp3d" />
    <inkscape:perspective
       id="perspective16"
       inkscape:persp3d-origin="0.5 : 0.33333333 : 1"
       inkscape:vp_z="1 : 0.5 : 1"
       inkscape:vp_y="0 : 1000 : 0"
       inkscape:vp_x="0 : 0.5 : 1"
       sodipodi:type="inkscape:persp3d" />
    <inkscape:perspective
       id="perspective1570"
       inkscape:persp3d-origin="0.5 : 0.33333333 : 1"
       inkscape:vp_z="1 : 0.5 : 1"
       inkscape:vp_y="0 : 1000 : 0"
       inkscape:vp_x="0 : 0.5 : 1"
       sodipodi:type="inkscape:persp3d" />
    <inkscape:perspective
       id="perspective2845"
       inkscape:persp3d-origin="0.5 : 0.33333333 : 1"
       inkscape:vp_z="1 : 0.5 : 1"
       inkscape:vp_y="0 : 1000 : 0"
       inkscape:vp_x="0 : 0.5 : 1"
       sodipodi:type="inkscape:persp3d" />
  </defs>
  <sodipodi:namedview
     inkscape:window-height="724"
     inkscape:window-width="1270"
     inkscape:pageshadow="2"
     inkscape:pageopacity="0.0"
     guidetolerance="10.0"
     gridtolerance="10.0"
     objecttolerance="10.0"
     borderopacity="1.0"
     bordercolor="#666666"
     pagecolor="#ffffff"
     id="base"
     showgrid="true"
     inkscape:zoom="11.270833"
     inkscape:cx="18.661423"
     inkscape:cy="9.8040661"
     inkscape:window-x="0"
     inkscape:window-y="24"
     inkscape:current-layer="g954"
     inkscape:snap-global="false"
     inkscape:window-maximized="0" />
  <path
     style="fill:#000000"
     d="M 17.965841,22.655338 L 12.500001,17.091981 L 6.5000011,17.405338 C 1.6940641,17.656334 0.50000109,17.420181 0.50000109,16.218697 C 0.50000109,15.015956 1.6632266,14.788094 6.3697639,15.06888 L 12.239527,15.419064 L 18.119764,9.6001835 L 24.000001,3.7813035 L 29.880238,9.6001835 L 35.760475,15.419064 L 41.630238,15.06888 C 46.336775,14.788094 47.500001,15.015956 47.500001,16.218697 C 47.500001,17.420181 46.305938,17.656334 41.500001,17.405338 L 35.500001,17.091981 L 30.034161,22.655338 C 27.027949,25.715186 24.312577,28.218697 24.000001,28.218697 C 23.687425,28.218697 20.972053,25.715186 17.965841,22.655338 z M 29.512747,21.205756 L 34.45031,16.192815 L 29.225155,10.967661 L 24.000001,5.7425065 L 18.774847,10.967661 L 13.549692,16.192815 L 18.487255,21.205756 C 21.202914,23.962874 23.68365,26.218697 24.000001,26.218697 C 24.316352,26.218697 26.797088,23.962874 29.512747,21.205756 z M 26.000001,18.432983 C 26.000001,17.711894 24.578432,17.218697 22.500001,17.218697 C 20.575001,17.218697 19.000001,16.768697 19.000001,16.218697 C 19.000001,15.668697 20.575001,15.218697 22.500001,15.218697 C 24.578432,15.218697 26.000001,14.7255 26.000001,14.004411 C 26.000001,13.246475 26.644259,13.434383 27.714287,14.504411 C 29.333334,16.123459 29.333334,16.313935 27.714287,17.932983 C 26.644259,19.003011 26.000001,19.190919 26.000001,18.432983 z M 3.0000011,16.218697 C 3.0000011,15.668697 2.5500011,15.218697 2.0000011,15.218697 C 1.4500011,15.218697 1.0000011,15.668697 1.0000011,16.218697 C 1.0000011,16.768697 1.4500011,17.218697 2.0000011,17.218697 C 2.5500011,17.218697 3.0000011,16.768697 3.0000011,16.218697 z M 47.000001,16.218697 C 47.000001,15.668697 46.550001,15.218697 46.000001,15.218697 C 45.450001,15.218697 45.000001,15.668697 45.000001,16.218697 C 45.000001,16.768697 45.450001,17.218697 46.000001,17.218697 C 46.550001,17.218697 47.000001,16.768697 47.000001,16.218697 z"
     id="path2384" />
  <g
     id="g949"
     transform="translate(0,4)">
    <g
       id="g954">
      <path
         sodipodi:type="arc"
         style="fill:#e6e6e6;fill-opacity:1;stroke:#000000;stroke-width:0.25;stroke-linecap:round;stroke-linejoin:round;stroke-miterlimit:4;stroke-opacity:1;stroke-dasharray:none;stroke-dashoffset:0"
         id="path12"
         sodipodi:cx="4.4362292"
         sodipodi:cy="28.539742"
         sodipodi:rx="2.12939"
         sodipodi:ry="2.12939"
         d="m 6.5656192,28.539742 c 0,1.176029 -0.9533603,2.12939 -2.12939,2.12939 -1.1760296,0 -2.12939,-0.953361 -2.12939,-2.12939 0,-1.17603 0.9533604,-2.12939 2.12939,-2.12939 1.1760297,0 2.12939,0.95336 2.12939,2.12939 z"
         transform="matrix(0.66536846,0,0,0.66536846,40.548273,7.5105561)" />
      <path
         sodipodi:type="arc"
         style="fill:#e6e6e6;fill-opacity:1;stroke:#000000;stroke-width:0.25;stroke-linecap:round;stroke-linejoin:round;stroke-miterlimit:4;stroke-opacity:1;stroke-dasharray:none;stroke-dashoffset:0"
         id="path12-6"
         sodipodi:cx="4.4362292"
         sodipodi:cy="28.539742"
         sodipodi:rx="2.12939"
         sodipodi:ry="2.12939"
         d="m 6.5656192,28.539742 c 0,1.176029 -0.9533603,2.12939 -2.12939,2.12939 -1.1760296,0 -2.12939,-0.953361 -2.12939,-2.12939 0,-1.17603 0.9533604,-2.12939 2.12939,-2.12939 1.1760297,0 2.12939,0.95336 2.12939,2.12939 z"
         transform="matrix(0.66536846,0,0,0.66536846,1.548273,7.5105561)" />
      <path
         sodipodi:type="arc"
         style="fill:#000000;fill-opacity:1;stroke:#000000;stroke-width:0.25;stroke-linecap:round;stroke-linejoin:round;stroke-miterlimit:4;stroke-opacity:1;stroke-dasharray:none;stroke-dashoffset:0"
         id="path1560"
         sodipodi:cx="-16.724585"
         sodipodi:cy="29.47135"
         sodipodi:rx="2.3512015"
         sodipodi:ry="2.3512015"
         d="m -14.373383,29.47135 c 0,1.298532 -1.052669,2.351201 -2.351202,2.351201 -1.298532,0 -2.351201,-1.052669 -2.351201,-2.351201 0,-1.298533 1.052669,-2.351202 2.351201,-2.351202 1.298533,0 2.351202,1.052669 2.351202,2.351202 z"
         transform="matrix(0.39873763,0,0,0.39874318,11.168734,14.748476)" />
      <path
         sodipodi:type="arc"
         style="fill:#000000;fill-opacity:1;stroke:#000000;stroke-width:0.25;stroke-linecap:round;stroke-linejoin:round;stroke-miterlimit:4;stroke-opacity:1;stroke-dasharray:none;stroke-dashoffset:0"
         id="path1560-3"
         sodipodi:cx="-16.724585"
         sodipodi:cy="29.47135"
         sodipodi:rx="2.3512015"
         sodipodi:ry="2.3512015"
         d="m -14.373383,29.47135 c 0,1.298532 -1.052669,2.351201 -2.351202,2.351201 -1.298532,0 -2.351201,-1.052669 -2.351201,-2.351201 0,-1.298533 1.052669,-2.351202 2.351201,-2.351202 1.298533,0 2.351202,1.052669 2.351202,2.351202 z"
         transform="matrix(0.39873763,0,0,0.39874318,50.168734,14.748476)" />
    </g>
  </g>
</svg>
