<?xml version="1.0" encoding="UTF-8" standalone="no"?>
<!-- Created with Inkscape (http://www.inkscape.org/) -->
<svg
   xmlns:dc="http://purl.org/dc/elements/1.1/"
   xmlns:cc="http://creativecommons.org/ns#"
   xmlns:rdf="http://www.w3.org/1999/02/22-rdf-syntax-ns#"
   xmlns:svg="http://www.w3.org/2000/svg"
   xmlns="http://www.w3.org/2000/svg"
   xmlns:sodipodi="http://sodipodi.sourceforge.net/DTD/sodipodi-0.dtd"
   xmlns:inkscape="http://www.inkscape.org/namespaces/inkscape"
   id="svg2"
   sodipodi:version="0.32"
   inkscape:version="0.46"
   width="48"
   height="32"
   version="1.0"
   sodipodi:docname="controlled voltage source.svg"
   inkscape:output_extension="org.inkscape.output.svg.inkscape">
  <metadata
     id="metadata7">
    <rdf:RDF>
      <cc:Work
         rdf:about="">
        <dc:format>image/svg+xml</dc:format>
        <dc:type
           rdf:resource="http://purl.org/dc/dcmitype/StillImage" />
      </cc:Work>
    </rdf:RDF>
  </metadata>
  <defs
     id="defs5">
    <inkscape:perspective
       sodipodi:type="inkscape:persp3d"
       inkscape:vp_x="0 : 526.18109 : 1"
       inkscape:vp_y="0 : 1000 : 0"
       inkscape:vp_z="744.09448 : 526.18109 : 1"
       inkscape:persp3d-origin="372.04724 : 350.78739 : 1"
       id="perspective9" />
  </defs>
  <sodipodi:namedview
     inkscape:window-height="745"
     inkscape:window-width="1270"
     inkscape:pageshadow="2"
     inkscape:pageopacity="0.0"
     guidetolerance="10.0"
     gridtolerance="10.0"
     objecttolerance="10.0"
     borderopacity="1.0"
     bordercolor="#666666"
     pagecolor="#ffffff"
     id="base"
     showgrid="false"
     inkscape:zoom="11.270833"
     inkscape:cx="24"
     inkscape:cy="24"
     inkscape:window-x="0"
     inkscape:window-y="25"
     inkscape:current-layer="svg2" />
  <path
     style="fill:#000000"
     d="M 17.96584,22.655338 L 12.5,17.09198 L 6.5,17.405338 C 1.6940629,17.656334 0.49999995,17.42018 0.49999995,16.218697 C 0.49999995,15.015956 1.663225,14.788093 6.369763,15.068879 L 12.239526,15.419064 L 18.119763,9.6001835 L 24,3.7813035 L 29.880237,9.6001835 L 35.760474,15.419064 L 41.630237,15.068879 C 46.336774,14.788093 47.5,15.015956 47.5,16.218697 C 47.5,17.42018 46.305937,17.656334 41.5,17.405338 L 35.5,17.09198 L 30.03416,22.655338 C 27.027948,25.715185 24.312576,28.218697 24,28.218697 C 23.687424,28.218697 20.972052,25.715185 17.96584,22.655338 z M 29.512746,21.205755 L 34.450309,16.192814 L 29.225154,10.96766 L 24,5.7425065 L 18.774846,10.96766 L 13.549691,16.192814 L 18.487254,21.205755 C 21.202913,23.962874 23.683649,26.218697 24,26.218697 C 24.316351,26.218697 26.797087,23.962874 29.512746,21.205755 z M 27.372283,17.772142 C 26.632811,16.980534 26.654947,16.330451 27.446554,15.590979 C 28.238162,14.851508 28.888245,14.873644 29.627717,15.66525 C 30.367189,16.456858 30.345053,17.106941 29.553446,17.846414 C 28.761838,18.585885 28.111755,18.56375 27.372283,17.772142 z M 17.730968,16.562759 C 18.408001,16.288836 19.758001,16.272163 20.730968,16.525705 C 21.703936,16.779249 21.15,17.003369 19.5,17.023747 C 17.85,17.044127 17.053936,16.836682 17.730968,16.562759 z M 2.9999999,16.218697 C 2.9999999,15.668696 2.55,15.218697 2,15.218697 C 1.45,15.218697 0.99999995,15.668696 0.99999995,16.218697 C 0.99999995,16.768696 1.45,17.218697 2,17.218697 C 2.55,17.218697 2.9999999,16.768696 2.9999999,16.218697 z M 47,16.218697 C 47,15.668696 46.55,15.218697 46,15.218697 C 45.45,15.218697 45,15.668696 45,16.218697 C 45,16.768696 45.45,17.218697 46,17.218697 C 46.55,17.218697 47,16.768696 47,16.218697 z"
     id="path2384" />
</svg>
