<?xml version="1.0" encoding="UTF-8" standalone="no"?>
<!-- Created with Inkscape (http://www.inkscape.org/) -->

<svg
   xmlns:osb="http://www.openswatchbook.org/uri/2009/osb"
   xmlns:dc="http://purl.org/dc/elements/1.1/"
   xmlns:cc="http://creativecommons.org/ns#"
   xmlns:rdf="http://www.w3.org/1999/02/22-rdf-syntax-ns#"
   xmlns:svg="http://www.w3.org/2000/svg"
   xmlns="http://www.w3.org/2000/svg"
   xmlns:xlink="http://www.w3.org/1999/xlink"
   xmlns:sodipodi="http://sodipodi.sourceforge.net/DTD/sodipodi-0.dtd"
   xmlns:inkscape="http://www.inkscape.org/namespaces/inkscape"
   id="svg3763"
   version="1.1"
   inkscape:version="0.48.4 r9939"
   width="527.69"
   height="198.69202"
   xml:space="preserve"
   sodipodi:docname="D:\Data\ownCloud\Work\CRIMSON Logo\CRIMSONBoundaryConditionToolboxLogo.svg"
   inkscape:export-filename="D:\Data\ownCloud\Work\CRIMSON Logo\CRIMSONBoundaryConditionToolboxLogo.svg.png"
   inkscape:export-xdpi="150.02551"
   inkscape:export-ydpi="150.02551"><metadata
     id="metadata3769"><rdf:RDF><cc:Work
         rdf:about=""><dc:format>image/svg+xml</dc:format><dc:type
           rdf:resource="http://purl.org/dc/dcmitype/StillImage" /><dc:title></dc:title></cc:Work></rdf:RDF></metadata><defs
     id="defs3767"><linearGradient
       id="linearGradient6809"><stop
         style="stop-color:#a32638;stop-opacity:1;"
         offset="0"
         id="stop6811" /><stop
         id="stop6813"
         offset="0.9591794"
         style="stop-color:#3d97e3;stop-opacity:1;" /><stop
         style="stop-color:#3d97e3;stop-opacity:1;"
         offset="1"
         id="stop6815" /></linearGradient><linearGradient
       id="linearGradient6801"><stop
         id="stop6803"
         offset="0"
         style="stop-color:#a32638;stop-opacity:1;" /><stop
         style="stop-color:#3d97e3;stop-opacity:1;"
         offset="0.538508"
         id="stop6805" /><stop
         id="stop6807"
         offset="1"
         style="stop-color:#3d97e3;stop-opacity:1;" /></linearGradient><linearGradient
       id="linearGradient6773"><stop
         id="stop6775"
         offset="0"
         style="stop-color:#a32638;stop-opacity:1;" /><stop
         style="stop-color:#3d97e3;stop-opacity:1;"
         offset="1"
         id="stop6777" /><stop
         id="stop6779"
         offset="1"
         style="stop-color:#3d97e3;stop-opacity:1;" /></linearGradient><linearGradient
       id="linearGradient6765"><stop
         id="stop6767"
         offset="0"
         style="stop-color:#a32638;stop-opacity:1;" /><stop
         style="stop-color:#3d97e3;stop-opacity:1;"
         offset="0.93794173"
         id="stop6769" /><stop
         id="stop6771"
         offset="1"
         style="stop-color:#3d97e3;stop-opacity:1;" /></linearGradient><linearGradient
       id="linearGradient6542"><stop
         style="stop-color:#a32638;stop-opacity:1;"
         offset="0"
         id="stop6544" /><stop
         id="stop6546"
         offset="1"
         style="stop-color:#3d97e3;stop-opacity:1;" /><stop
         style="stop-color:#3d97e3;stop-opacity:1;"
         offset="1"
         id="stop6548" /></linearGradient><linearGradient
       id="linearGradient6526"><stop
         id="stop6528"
         offset="0"
         style="stop-color:#a32638;stop-opacity:1;" /><stop
         style="stop-color:#3d97e3;stop-opacity:1;"
         offset="0.70179623"
         id="stop6530" /><stop
         id="stop6532"
         offset="1"
         style="stop-color:#3d97e3;stop-opacity:1;" /></linearGradient><linearGradient
       id="linearGradient6518"><stop
         id="stop6520"
         offset="0"
         style="stop-color:#a32638;stop-opacity:1;" /><stop
         style="stop-color:#3d97e3;stop-opacity:1;"
         offset="0.73103601"
         id="stop6522" /><stop
         id="stop6524"
         offset="1"
         style="stop-color:#3d97e3;stop-opacity:1;" /></linearGradient><linearGradient
       id="linearGradient6167"><stop
         style="stop-color:#a32638;stop-opacity:1;"
         offset="0"
         id="stop6169" /><stop
         id="stop6516"
         offset="0.5"
         style="stop-color:#3d97e3;stop-opacity:1;" /><stop
         style="stop-color:#3d97e3;stop-opacity:1;"
         offset="1"
         id="stop6171" /></linearGradient><linearGradient
       id="linearGradient6157"
       osb:paint="solid"><stop
         style="stop-color:#000000;stop-opacity:1;"
         offset="0"
         id="stop6159" /></linearGradient><linearGradient
       id="linearGradient4447"><stop
         style="stop-color:#a32638;stop-opacity:1"
         offset="0"
         id="stop4449" /><stop
         id="stop6177"
         offset="0.18482223"
         style="stop-color:#705e71;stop-opacity:1;" /><stop
         style="stop-color:#3d97e3;stop-opacity:1;"
         offset="1"
         id="stop4451" /></linearGradient><clipPath
       clipPathUnits="userSpaceOnUse"
       id="clipPath3777"><path
         d="M 0,792 612,792 612,0 0,0 0,792 z"
         id="path3779"
         inkscape:connector-curvature="0" /></clipPath><clipPath
       clipPathUnits="userSpaceOnUse"
       id="clipPath3873-9"><path
         inkscape:connector-curvature="0"
         d="m 106.87,132.802 130.441,0 0,102.178 -130.441,0 0,-102.178 z"
         id="path3875-3" /></clipPath><clipPath
       clipPathUnits="userSpaceOnUse"
       id="clipPath3853-5"><path
         inkscape:connector-curvature="0"
         d="m 166.972,191.245 70.339,0 0,43.735 -70.339,0 0,-43.735 z"
         id="path3855-8" /></clipPath><clipPath
       clipPathUnits="userSpaceOnUse"
       id="clipPath3821-6"><path
         inkscape:connector-curvature="0"
         d="m 106.87,132.802 130.441,0 0,102.178 -130.441,0 0,-102.178 z"
         id="path3823-2" /></clipPath><linearGradient
       id="linearGradient4447-0"><stop
         style="stop-color:#a32600;stop-opacity:1;"
         offset="0"
         id="stop4449-2" /><stop
         style="stop-color:#3d97e3;stop-opacity:1;"
         offset="1"
         id="stop4451-4" /></linearGradient><linearGradient
       id="linearGradient4506"><stop
         style="stop-color:#a32600;stop-opacity:1;"
         offset="0"
         id="stop4508" /><stop
         style="stop-color:#3d97e3;stop-opacity:1;"
         offset="1"
         id="stop4510" /></linearGradient><linearGradient
       inkscape:collect="always"
       xlink:href="#linearGradient4447-0"
       id="linearGradient6491"
       gradientUnits="userSpaceOnUse"
       gradientTransform="translate(526.40521,73.42388)"
       x1="-300.44492"
       y1="-71.149246"
       x2="-279.98868"
       y2="19.641172" /><linearGradient
       inkscape:collect="always"
       xlink:href="#linearGradient4447-0"
       id="linearGradient6493"
       gradientUnits="userSpaceOnUse"
       gradientTransform="translate(526.40521,73.42388)"
       x1="-300.44492"
       y1="-71.149246"
       x2="-279.98868"
       y2="19.641172" /><linearGradient
       inkscape:collect="always"
       xlink:href="#linearGradient4447"
       id="linearGradient6498"
       gradientUnits="userSpaceOnUse"
       x1="-265.87793"
       y1="-57.405758"
       x2="-241.67345"
       y2="17.558825"
       gradientTransform="translate(505.96,244.8076)" /><linearGradient
       inkscape:collect="always"
       xlink:href="#linearGradient6167"
       id="linearGradient6514"
       x1="240.08208"
       y1="187.40184"
       x2="264.28656"
       y2="262.36642"
       gradientUnits="userSpaceOnUse" /><linearGradient
       inkscape:collect="always"
       xlink:href="#linearGradient6542-7"
       id="linearGradient6556-0"
       x1="7.5762448"
       y1="-13.471379"
       x2="-1.6926591"
       y2="16.552998"
       gradientUnits="userSpaceOnUse" /><linearGradient
       id="linearGradient6542-7"><stop
         style="stop-color:#a32638;stop-opacity:1;"
         offset="0"
         id="stop6544-1" /><stop
         id="stop6546-1"
         offset="1"
         style="stop-color:#3d97e3;stop-opacity:1;" /><stop
         style="stop-color:#3d97e3;stop-opacity:1;"
         offset="1"
         id="stop6548-0" /></linearGradient><linearGradient
       inkscape:collect="always"
       xlink:href="#linearGradient6542-7"
       id="linearGradient6540-6"
       x1="7.5762448"
       y1="-13.471379"
       x2="-1.6926591"
       y2="16.552998"
       gradientUnits="userSpaceOnUse" /><linearGradient
       id="linearGradient6574"><stop
         style="stop-color:#a32638;stop-opacity:1;"
         offset="0"
         id="stop6576" /><stop
         id="stop6578"
         offset="1"
         style="stop-color:#3d97e3;stop-opacity:1;" /><stop
         style="stop-color:#3d97e3;stop-opacity:1;"
         offset="1"
         id="stop6580" /></linearGradient><linearGradient
       inkscape:collect="always"
       xlink:href="#linearGradient6542"
       id="linearGradient6665"
       gradientUnits="userSpaceOnUse"
       x1="2.8060167"
       y1="-3.930923"
       x2="-1.6926591"
       y2="16.552998"
       gradientTransform="translate(222.2246,210.4482)" /><linearGradient
       inkscape:collect="always"
       xlink:href="#linearGradient6773"
       id="linearGradient6667"
       gradientUnits="userSpaceOnUse"
       x1="2.8060167"
       y1="-3.930923"
       x2="-1.6926591"
       y2="16.552998"
       gradientTransform="translate(222.2246,210.4482)" /><linearGradient
       inkscape:collect="always"
       xlink:href="#linearGradient6167"
       id="linearGradient6672"
       gradientUnits="userSpaceOnUse"
       x1="4.9105291"
       y1="-2.8075163"
       x2="14.603858"
       y2="28.483437"
       gradientTransform="translate(180.4507,202.7695)" /><linearGradient
       inkscape:collect="always"
       xlink:href="#linearGradient6167"
       id="linearGradient6680"
       gradientUnits="userSpaceOnUse"
       x1="-1.5"
       y1="7.5685"
       x2="74.568108"
       y2="45.85202"
       gradientTransform="translate(136.6387,199.8867)" /><linearGradient
       inkscape:collect="always"
       xlink:href="#linearGradient6526"
       id="linearGradient6686"
       gradientUnits="userSpaceOnUse"
       x1="23.531532"
       y1="-29.707657"
       x2="-4.2789745"
       y2="25.950691" /><linearGradient
       inkscape:collect="always"
       xlink:href="#linearGradient6518"
       id="linearGradient6697"
       gradientUnits="userSpaceOnUse"
       x1="3.3699248"
       y1="-74.590553"
       x2="5.2866092"
       y2="13.452135"
       gradientTransform="translate(201.0835,247.7041)" /><linearGradient
       inkscape:collect="always"
       xlink:href="#linearGradient6801"
       id="linearGradient6719"
       gradientUnits="userSpaceOnUse"
       x1="-4.738977"
       y1="2.4612992"
       x2="42.549362"
       y2="69.071144" /><linearGradient
       inkscape:collect="always"
       xlink:href="#linearGradient6167"
       id="linearGradient6721"
       gradientUnits="userSpaceOnUse"
       x1="-35.366192"
       y1="-6.670855"
       x2="146.64035"
       y2="38.091415" /><linearGradient
       inkscape:collect="always"
       xlink:href="#linearGradient6574"
       id="linearGradient6751"
       x1="3.1478214"
       y1="-2.6652157"
       x2="5.5417805"
       y2="12.206672"
       gradientUnits="userSpaceOnUse" /><linearGradient
       inkscape:collect="always"
       xlink:href="#linearGradient6574"
       id="linearGradient6759"
       x1="3.1478214"
       y1="-2.6652157"
       x2="5.5417805"
       y2="12.206672"
       gradientUnits="userSpaceOnUse" /><linearGradient
       inkscape:collect="always"
       xlink:href="#linearGradient6765"
       id="linearGradient6761"
       gradientUnits="userSpaceOnUse"
       x1="2.3060164"
       y1="-2.1040125"
       x2="-0.63145596"
       y2="11.364867" /><linearGradient
       inkscape:collect="always"
       xlink:href="#linearGradient6574"
       id="linearGradient6763"
       gradientUnits="userSpaceOnUse"
       x1="2.3060164"
       y1="-2.1040125"
       x2="-0.63145596"
       y2="11.364867" /><linearGradient
       inkscape:collect="always"
       xlink:href="#linearGradient6167"
       id="linearGradient6781"
       gradientUnits="userSpaceOnUse"
       x1="-29.367529"
       y1="-50.124847"
       x2="21.459352"
       y2="2.0733678" /><linearGradient
       inkscape:collect="always"
       xlink:href="#linearGradient6809"
       id="linearGradient6791"
       x1="4.9024372"
       y1="-0.336086"
       x2="11.63162"
       y2="20.057034"
       gradientUnits="userSpaceOnUse" /><linearGradient
       inkscape:collect="always"
       xlink:href="#linearGradient6773"
       id="linearGradient6799"
       x1="4.9024372"
       y1="-0.336086"
       x2="11.63162"
       y2="20.057034"
       gradientUnits="userSpaceOnUse" /><linearGradient
       inkscape:collect="always"
       xlink:href="#linearGradient6574"
       id="linearGradient3887"
       x1="228.71602"
       y1="-72.408867"
       x2="489.2388"
       y2="-159.39539"
       gradientUnits="userSpaceOnUse"
       gradientTransform="matrix(1.0866767,0,0,1.0866767,-41.872166,-2.4393863)" /></defs><sodipodi:namedview
     pagecolor="#ffffff"
     bordercolor="#666666"
     borderopacity="1"
     objecttolerance="10"
     gridtolerance="10"
     guidetolerance="10"
     inkscape:pageopacity="0"
     inkscape:pageshadow="2"
     inkscape:window-width="1536"
     inkscape:window-height="803"
     id="namedview3765"
     showgrid="false"
     showguides="true"
     inkscape:guide-bbox="true"
     inkscape:zoom="1.4255083"
     inkscape:cx="193.67743"
     inkscape:cy="139.979"
     inkscape:window-x="-8"
     inkscape:window-y="-8"
     inkscape:window-maximized="1"
     inkscape:current-layer="g3771"
     fit-margin-top="2"
     fit-margin-left="2"
     fit-margin-right="2"
     fit-margin-bottom="2" /><g
     id="g3771"
     inkscape:groupmode="layer"
     inkscape:label="Logo-for-website"
     transform="matrix(1.25,0,0,-1.25,-125.30875,309.13023)"><g
   id="g3781"
   transform="translate(505.959,124.332)"
   style="stroke:none"><path
     sodipodi:nodetypes="csssscsssc"
     d="m 0,0 -389.274,0 c -7.19,0 -13.039,5.895 -13.039,13.139 l 0,93.199 c 0,7.245 5.849,13.139 13.039,13.139 l 146.41299,0 242.86101,0 c 7.19,0 13.041,-5.894 13.041,-13.139 l 0,-93.199 C 13.041,5.895 7.19,0 0,0"
     style="fill:#ffffff;fill-opacity:1;fill-rule:nonzero;stroke:none"
     id="path3783"
     inkscape:connector-curvature="0" /></g><path
   inkscape:connector-curvature="0"
   id="path3787"
   style="fill:url(#linearGradient6498);fill-opacity:1;fill-rule:nonzero;stroke:url(#linearGradient6514);stroke-width:1.60000002;stroke-miterlimit:4;stroke-opacity:1;stroke-dasharray:none"
   d="m 505.96,244.8076 -389.275,0 c -7.741,0 -14.038,-6.342 -14.038,-14.138 l 0,-93.199 c 0,-7.796 6.297,-14.138 14.038,-14.138 l 389.275,0 c 7.741,0 14.039,6.342 14.039,14.138 l 0,93.199 c 0,7.796 -6.298,14.138 -14.039,14.138 m 0,-2 c 6.649,0 12.039,-5.434 12.039,-12.138 l 0,-93.199 c 0,-6.703 -5.39,-12.138 -12.039,-12.138 l -389.275,0 c -6.648,0 -12.038,5.435 -12.038,12.138 l 0,93.199 c 0,6.704 5.39,12.138 12.038,12.138 l 183.4788,0 11.24469,0 36.64934,0 22.58288,0 21.20318,0 114.11611,0"
   sodipodi:nodetypes="csssssssccssssssscccccc" /><text
   y="-198.1758"
   x="242.20509"
   transform="scale(1,-1)"
   id="text3789"
   style="stroke:none"><tspan
     style="font-size:50.87250137px;font-variant:normal;font-weight:bold;font-stretch:normal;writing-mode:lr-tb;fill:#a32638;fill-opacity:1;fill-rule:nonzero;stroke:none;font-family:Kalinga;-inkscape-font-specification:Kalinga-Bold"
     x="242.20509 282.08914 319.27695 337.03143 388.10742 425.65134 469.40167"
     y="-198.1758"
     sodipodi:role="line"
     id="tspan3791">CRIMSON</tspan></text>


<text
   y="-164.13091"
   x="179.88429"
   transform="scale(1,-1)"
   id="text3793"
   style="stroke:none"><tspan
     style="font-size:25.43619919px;font-variant:normal;font-weight:bold;font-stretch:normal;writing-mode:lr-tb;fill:#a32638;fill-opacity:1;fill-rule:nonzero;stroke:none;font-family:Kalinga;-inkscape-font-specification:Kalinga-Bold"
     x="179.88429"
     y="-164.13091"
     id="tspan3795">C</tspan><tspan
     style="font-size:25.43619919px;font-variant:normal;font-weight:bold;font-stretch:normal;writing-mode:lr-tb;fill:#3d97e3;fill-opacity:1;fill-rule:nonzero;stroke:none;font-family:Kalinga;-inkscape-font-specification:Kalinga-Bold"
     x="198.55447 214.55383 224.34677 240.75313 247.46828 263.54395 277.78824 293.7876 307.42142 322.27615 338.63162 345.34677"
     y="-164.13091"
     sodipodi:role="line"
     id="tspan3797">ardiovascula</tspan><tspan
     style="font-size:25.43619919px;font-variant:normal;font-weight:bold;font-stretch:normal;writing-mode:lr-tb;fill:#a32638;fill-opacity:1;fill-rule:nonzero;stroke:none;font-family:Kalinga;-inkscape-font-specification:Kalinga-Bold"
     x="361.34616"
     y="-164.13091"
     id="tspan3799">r</tspan><tspan
     style="font-size:25.43619919px;font-variant:normal;font-weight:bold;font-stretch:normal;writing-mode:lr-tb;fill:#3d97e3;fill-opacity:1;fill-rule:nonzero;stroke:none;font-family:Kalinga;-inkscape-font-specification:Kalinga-Bold"
     x="371.1391"
     y="-164.13091"
     id="tspan3801"> </tspan><tspan
     style="font-size:25.43619919px;font-variant:normal;font-weight:bold;font-stretch:normal;writing-mode:lr-tb;fill:#a32638;fill-opacity:1;fill-rule:nonzero;stroke:none;font-family:Kalinga;-inkscape-font-specification:Kalinga-Bold"
     x="377.80338"
     y="-164.13091"
     id="tspan3803">I</tspan><tspan
     style="font-size:25.43619919px;font-variant:normal;font-weight:bold;font-stretch:normal;writing-mode:lr-tb;fill:#3d97e3;fill-opacity:1;fill-rule:nonzero;stroke:none;font-family:Kalinga;-inkscape-font-specification:Kalinga-Bold"
     x="385.40878 401.73883 410.41257 425.85236 442.20782 452.00076 468.00015 476.67389 492.11368 508.49457"
     y="-164.13091"
     sodipodi:role="line"
     id="tspan3805">ntegrated </tspan><tspan
     style="font-size:25.43619919px;font-variant:normal;font-weight:bold;font-stretch:normal;writing-mode:lr-tb;fill:#a32638;fill-opacity:1;fill-rule:nonzero;stroke:none;font-family:Kalinga;-inkscape-font-specification:Kalinga-Bold"
     x="179.88429"
     y="-133.60747"
     id="tspan3807">M</tspan><tspan
     style="font-size:25.43619919px;font-variant:normal;font-weight:bold;font-stretch:normal;writing-mode:lr-tb;fill:#3d97e3;fill-opacity:1;fill-rule:nonzero;stroke:none;font-family:Kalinga;-inkscape-font-specification:Kalinga-Bold"
     x="204.4048 220.73483 237.39555 253.08968 260.0592 267.02872 273.99823 290.60806 307.24335 314.16199 330.41574 347.02557 363.66086"
     y="-133.60747"
     sodipodi:role="line"
     id="tspan3809">odelling and </tspan><tspan
     style="font-size:25.43619919px;font-variant:normal;font-weight:bold;font-stretch:normal;writing-mode:lr-tb;fill:#a32638;fill-opacity:1;fill-rule:nonzero;stroke:none;font-family:Kalinga;-inkscape-font-specification:Kalinga-Bold"
     x="370.5795"
     y="-133.60747"
     id="tspan3811">S</tspan><tspan
     style="font-size:25.43619919px;font-variant:normal;font-weight:bold;font-stretch:normal;writing-mode:lr-tb;fill:#3d97e3;fill-opacity:1;fill-rule:nonzero;stroke:none;font-family:Kalinga;-inkscape-font-specification:Kalinga-Bold"
     x="388.33395 395.30347 420.73969 437.3241 444.29361 460.54733 469.47543"
     y="-133.60747"
     sodipodi:role="line"
     id="tspan3813">imulati</tspan><tspan
     style="font-size:25.43619919px;font-variant:normal;font-weight:bold;font-stretch:normal;writing-mode:lr-tb;fill:#a32638;fill-opacity:1;fill-rule:nonzero;stroke:none;font-family:Kalinga;-inkscape-font-specification:Kalinga-Bold"
     x="476.44498 492.77499"
     y="-133.60747"
     sodipodi:role="line"
     id="tspan3815">on</tspan></text>


<path
   inkscape:connector-curvature="0"
   id="path3827"
   style="fill:none;stroke:url(#linearGradient6680);stroke-width:3;stroke-linecap:butt;stroke-linejoin:miter;stroke-miterlimit:4;stroke-opacity:1;stroke-dasharray:none"
   d="m 137.4805,200.65835 c 9.891,4.546 19.26105,10.65061 23.0606,14.1549"
   sodipodi:nodetypes="cc" /><path
   sodipodi:nodetypes="ccc"
   inkscape:connector-curvature="0"
   id="path3831"
   style="fill:none;stroke:#a32638;stroke-width:3;stroke-linecap:butt;stroke-linejoin:miter;stroke-miterlimit:4;stroke-opacity:1;stroke-dasharray:none"
   d="m 133.32712,144.8164 c 0.107,7.437 0.54338,17.644 4.55738,24.303 4.108,6.811 8.394,13.083 15.757,18.174" /><path
   inkscape:connector-curvature="0"
   id="path3835"
   style="fill:none;stroke:#a32638;stroke-width:3;stroke-linecap:butt;stroke-linejoin:miter;stroke-miterlimit:4;stroke-opacity:1;stroke-dasharray:none"
   d="m 184.3438,192.5781 c 12.348,6.216 28.928,14.812 43.847,17.647" /><path
   sodipodi:nodetypes="cccsccc"
   inkscape:connector-curvature="0"
   id="path3839"
   style="fill:none;stroke:#a32638;stroke-width:3;stroke-linecap:butt;stroke-linejoin:miter;stroke-miterlimit:4;stroke-opacity:1;stroke-dasharray:none"
   d="m 144.66921,124.02895 c -9.5788,2.72195 -13.72791,20.16335 -10.24991,28.44435 3.196,7.616 7.273,12.115 15.213,19.594 2.166,2.041 5.579,4.936 7.793,6.356 3.24,2.078 7.23,4.857 10.709,6.996 5.022,3.086 5.479,3.553 8.729,5.828 1.731,1.21 4.356,5.403 7.518,10.39" /><g
   id="g3877"
   transform="translate(151.9893,187.2578)"><path
     d="m 0,0 c -0.02966283,2.5223602 -1.1662059,5.1565752 -0.594,8.442 0.17549586,4.739602 1.8340739,12.057874 5.9581889,15.948666 5.0800211,5.105049 5.6305711,5.353898 14.1922691,10.966798 7.568864,3.945784 34.449599,22.038151 33.406464,21.580388"
     style="fill:none;stroke:url(#linearGradient6719);stroke-width:3;stroke-linecap:butt;stroke-linejoin:miter;stroke-miterlimit:4;stroke-opacity:1;stroke-dasharray:none"
     id="path3879"
     inkscape:connector-curvature="0"
     sodipodi:nodetypes="ccccc" /></g><g
   id="g3881"
   transform="translate(147.7856,187.2598)"><path
     d="M 0,0 C 0,2.319 1.881,4.203 4.205,4.203 6.526,4.203 8.409,2.319 8.409,0 8.409,-2.324 6.526,-4.206 4.205,-4.206 1.881,-4.206 0,-2.324 0,0"
     style="fill:url(#linearGradient6799);fill-opacity:1;fill-rule:nonzero;stroke:url(#linearGradient6791)"
     id="path3883"
     inkscape:connector-curvature="0" /></g><g
   id="g3885"
   transform="translate(119.8877,125.4209)"><path
     d="M 19.99055,-0.41646979 C 13.67855,2.8245302 -0.0092505,6.7303416 -4.6050911,21.089 -7.0285482,27.94584 -6.892,37.864 -5.329,44.106 c 1.621,6.468 1.974,11.016 5.622,16.887 3.808,6.13 10.126,10.066 16.127,14.367"
     style="fill:none;stroke:#a32638;stroke-width:3;stroke-linecap:butt;stroke-linejoin:miter;stroke-miterlimit:4;stroke-opacity:1;stroke-dasharray:none"
     id="path3887"
     inkscape:connector-curvature="0"
     sodipodi:nodetypes="ccccc" /></g><g
   id="g3889"
   transform="translate(131.5562,199.9473)"><path
     d="M 0,0 C 0,2.321 1.882,4.203 4.205,4.203 6.525,4.203 8.407,2.321 8.407,0 8.407,-2.322 6.525,-4.204 4.205,-4.204 1.882,-4.204 0,-2.322 0,0"
     style="fill:#a32638;fill-opacity:1;fill-rule:nonzero;stroke:none"
     id="path3891"
     inkscape:connector-curvature="0" /></g><g
   id="g3893"
   transform="translate(119.2817,217.0771)"><path
     d="M 0,0 C 13.582,3.224 27.365958,4.2541583 44.334466,8.4481646 58.980592,12.072776 74.254324,20.412958 87.164888,27.076958"
     style="fill:none;stroke:url(#linearGradient6721);stroke-width:3;stroke-linecap:butt;stroke-linejoin:miter;stroke-miterlimit:4;stroke-opacity:1;stroke-dasharray:none"
     id="path3895"
     inkscape:connector-curvature="0"
     sodipodi:nodetypes="ccc" /></g><g
   id="g3897"
   transform="translate(119.6421,185.5605)"><path
     d="M 0,0 C 2.7179758,8.1816418 4.359,22.449 -0.914,30.828"
     style="fill:none;stroke:#a32638;stroke-width:3;stroke-linecap:butt;stroke-linejoin:miter;stroke-miterlimit:4;stroke-opacity:1;stroke-dasharray:none"
     id="path3899"
     inkscape:connector-curvature="0"
     sodipodi:nodetypes="cc" /></g><g
   id="g3901"
   transform="translate(114.5249,216.3926)"><path
     d="M 0,0 C 0,2.319 1.882,4.203 4.207,4.203 6.526,4.203 8.409,2.319 8.409,0 8.409,-2.325 6.526,-4.206 4.207,-4.206 1.882,-4.206 0,-2.325 0,0"
     style="fill:#a32638;fill-opacity:1;fill-rule:nonzero;stroke:none"
     id="path3903"
     inkscape:connector-curvature="0" /></g><g
   id="g3905"
   transform="translate(171.3101,187.4385)"><path
     d="m 0,0 c 3.495,1.61 9.654,4.39 15.151,5.629 2.443,0.55 11.266,2.429 18.885,3.228 3.235,0.336 6.639,0.622 11.169,1.188"
     style="fill:none;stroke:#a32638;stroke-width:3;stroke-linecap:butt;stroke-linejoin:miter;stroke-miterlimit:4;stroke-opacity:1;stroke-dasharray:none"
     id="path3907"
     inkscape:connector-curvature="0" /></g><path
   sodipodi:nodetypes="cccc"
   inkscape:connector-curvature="0"
   id="path3859"
   style="fill:none;stroke:url(#linearGradient6697);stroke-width:3;stroke-linecap:butt;stroke-linejoin:miter;stroke-miterlimit:4;stroke-opacity:1;stroke-dasharray:none"
   d="m 206.01012,244.02769 c -0.218,-3.376 -0.0116,-24.87259 0.20138,-27.94059 0.37,-5.321 0.736,-12.353 6.249,-16.247 1.116,-0.784 3.191,-2.082 4.055,-2.357" /><g
   id="g3909"
   transform="translate(212.3096,197.4854)"
   style="fill:url(#linearGradient6759);fill-opacity:1;stroke:url(#linearGradient6751)"><path
     d="M 0,0 C 0,2.321 1.882,4.205 4.207,4.205 6.527,4.205 8.409,2.321 8.409,0 8.409,-2.323 6.527,-4.204 4.207,-4.204 1.882,-4.204 0,-2.323 0,0"
     style="fill:url(#linearGradient6763);fill-opacity:1;fill-rule:nonzero;stroke:url(#linearGradient6761)"
     id="path3911"
     inkscape:connector-curvature="0" /></g><g
   id="g3861"
   transform="translate(205.3076,247.5674)"><path
     d="M 1.0232203,-3.4641217 C -2.325064,-15.443473 -13.663,-30.751 -17.071,-34.036 c -2.509,-3.445 -2.239,-3.735 -2.895,-5.249 -0.522,-2.093 -0.903,-3.835 -0.711,-6.173"
     style="fill:none;stroke:url(#linearGradient6781);stroke-width:3;stroke-linecap:butt;stroke-linejoin:miter;stroke-miterlimit:4;stroke-opacity:1;stroke-dasharray:none"
     id="path3863"
     inkscape:connector-curvature="0"
     sodipodi:nodetypes="cccc" /></g><path
   inkscape:connector-curvature="0"
   id="path3843"
   style="fill:url(#linearGradient6672);fill-opacity:1;fill-rule:nonzero;stroke:none"
   d="m 180.4507,202.7695 c 0,2.321 1.882,4.203 4.205,4.203 2.322,0 4.204,-1.882 4.204,-4.203 0,-2.322 -1.882,-4.206 -4.204,-4.206 -2.323,0 -4.205,1.884 -4.205,4.206" /><g
   id="g3865"
   transform="translate(205.7031,226.2754)"><path
     d="M 0.297623,0 C 1.8585463,-7.313 11.957,-12.792 20.725,-15.831"
     style="fill:none;stroke:url(#linearGradient6686);stroke-width:3;stroke-linecap:butt;stroke-linejoin:miter;stroke-miterlimit:4;stroke-opacity:1;stroke-dasharray:none"
     id="path3867"
     inkscape:connector-curvature="0"
     sodipodi:nodetypes="cc" /></g><path
   inkscape:connector-curvature="0"
   id="path3847"
   style="fill:url(#linearGradient6665);fill-opacity:1;fill-rule:nonzero;stroke:url(#linearGradient6667)"
   d="m 222.2246,210.4482 c 0,2.319 1.882,4.202 4.205,4.202 2.322,0 4.204,-1.883 4.204,-4.202 0,-2.325 -1.882,-4.207 -4.204,-4.207 -2.323,0 -4.205,1.882 -4.205,4.207" /><text
   xml:space="preserve"
   style="font-size:29.55760765px;font-style:normal;font-variant:normal;font-weight:normal;font-stretch:normal;line-height:125%;letter-spacing:0px;word-spacing:0px;fill:url(#linearGradient3887);fill-opacity:1;stroke:none;font-family:CMU Classical Serif;-inkscape-font-specification:Sans"
   x="101.21533"
   y="-103.96757"
   id="text3109"
   sodipodi:linespacing="125%"
   transform="scale(1.0866767,-0.92023689)"><tspan
     sodipodi:role="line"
     id="tspan3111"
     x="101.21533"
     y="-103.96757"
     style="fill:url(#linearGradient3887);fill-opacity:1">Boundary Condition Toolbox</tspan></text>

</g></svg>