<?xml version="1.0" encoding="UTF-8" standalone="no"?>
<!-- Created with Inkscape (http://www.inkscape.org/) -->

<svg
   xmlns:dc="http://purl.org/dc/elements/1.1/"
   xmlns:cc="http://creativecommons.org/ns#"
   xmlns:rdf="http://www.w3.org/1999/02/22-rdf-syntax-ns#"
   xmlns:svg="http://www.w3.org/2000/svg"
   xmlns="http://www.w3.org/2000/svg"
   xmlns:xlink="http://www.w3.org/1999/xlink"
   version="1.1"
   width="166.12688"
   height="157.96904"
   id="svg3763"
   xml:space="preserve"><metadata
     id="metadata3769"><rdf:RDF><cc:Work
         rdf:about=""><dc:format>image/svg+xml</dc:format><dc:type
           rdf:resource="http://purl.org/dc/dcmitype/StillImage" /><dc:title></dc:title></cc:Work></rdf:RDF></metadata><defs
     id="defs3767"><linearGradient
       id="linearGradient6809"><stop
         id="stop6811"
         style="stop-color:#a32638;stop-opacity:1"
         offset="0" /><stop
         id="stop6813"
         style="stop-color:#3d97e3;stop-opacity:1"
         offset="0.9591794" /><stop
         id="stop6815"
         style="stop-color:#3d97e3;stop-opacity:1"
         offset="1" /></linearGradient><linearGradient
       id="linearGradient6801"><stop
         id="stop6803"
         style="stop-color:#a32638;stop-opacity:1"
         offset="0" /><stop
         id="stop6805"
         style="stop-color:#3d97e3;stop-opacity:1"
         offset="0.538508" /><stop
         id="stop6807"
         style="stop-color:#3d97e3;stop-opacity:1"
         offset="1" /></linearGradient><linearGradient
       id="linearGradient6773"><stop
         id="stop6775"
         style="stop-color:#a32638;stop-opacity:1"
         offset="0" /><stop
         id="stop6777"
         style="stop-color:#3d97e3;stop-opacity:1"
         offset="1" /><stop
         id="stop6779"
         style="stop-color:#3d97e3;stop-opacity:1"
         offset="1" /></linearGradient><linearGradient
       id="linearGradient6765"><stop
         id="stop6767"
         style="stop-color:#a32638;stop-opacity:1"
         offset="0" /><stop
         id="stop6769"
         style="stop-color:#3d97e3;stop-opacity:1"
         offset="0.93794173" /><stop
         id="stop6771"
         style="stop-color:#3d97e3;stop-opacity:1"
         offset="1" /></linearGradient><linearGradient
       id="linearGradient6542"><stop
         id="stop6544"
         style="stop-color:#a32638;stop-opacity:1"
         offset="0" /><stop
         id="stop6546"
         style="stop-color:#3d97e3;stop-opacity:1"
         offset="1" /><stop
         id="stop6548"
         style="stop-color:#3d97e3;stop-opacity:1"
         offset="1" /></linearGradient><linearGradient
       id="linearGradient6526"><stop
         id="stop6528"
         style="stop-color:#a32638;stop-opacity:1"
         offset="0" /><stop
         id="stop6530"
         style="stop-color:#3d97e3;stop-opacity:1"
         offset="0.70179623" /><stop
         id="stop6532"
         style="stop-color:#3d97e3;stop-opacity:1"
         offset="1" /></linearGradient><linearGradient
       id="linearGradient6518"><stop
         id="stop6520"
         style="stop-color:#a32638;stop-opacity:1"
         offset="0" /><stop
         id="stop6522"
         style="stop-color:#3d97e3;stop-opacity:1"
         offset="0.73103601" /><stop
         id="stop6524"
         style="stop-color:#3d97e3;stop-opacity:1"
         offset="1" /></linearGradient><linearGradient
       id="linearGradient6167"><stop
         id="stop6169"
         style="stop-color:#a32638;stop-opacity:1"
         offset="0" /><stop
         id="stop6516"
         style="stop-color:#3d97e3;stop-opacity:1"
         offset="0.5" /><stop
         id="stop6171"
         style="stop-color:#3d97e3;stop-opacity:1"
         offset="1" /></linearGradient><linearGradient
       id="linearGradient6157"><stop
         id="stop6159"
         style="stop-color:#000000;stop-opacity:1"
         offset="0" /></linearGradient><linearGradient
       id="linearGradient4447"><stop
         id="stop4449"
         style="stop-color:#a32638;stop-opacity:1"
         offset="0" /><stop
         id="stop6177"
         style="stop-color:#705e71;stop-opacity:1"
         offset="0.18482223" /><stop
         id="stop4451"
         style="stop-color:#3d97e3;stop-opacity:1"
         offset="1" /></linearGradient><clipPath
       id="clipPath3777"><path
         d="M 0,792 612,792 612,0 0,0 0,792 z"
         id="path3779" /></clipPath><clipPath
       id="clipPath3873-9"><path
         d="m 106.87,132.802 130.441,0 0,102.178 -130.441,0 0,-102.178 z"
         id="path3875-3" /></clipPath><clipPath
       id="clipPath3853-5"><path
         d="m 166.972,191.245 70.339,0 0,43.735 -70.339,0 0,-43.735 z"
         id="path3855-8" /></clipPath><clipPath
       id="clipPath3821-6"><path
         d="m 106.87,132.802 130.441,0 0,102.178 -130.441,0 0,-102.178 z"
         id="path3823-2" /></clipPath><linearGradient
       id="linearGradient4447-0"><stop
         id="stop4449-2"
         style="stop-color:#a32600;stop-opacity:1"
         offset="0" /><stop
         id="stop4451-4"
         style="stop-color:#3d97e3;stop-opacity:1"
         offset="1" /></linearGradient><linearGradient
       id="linearGradient4506"><stop
         id="stop4508"
         style="stop-color:#a32600;stop-opacity:1"
         offset="0" /><stop
         id="stop4510"
         style="stop-color:#3d97e3;stop-opacity:1"
         offset="1" /></linearGradient><linearGradient
       x1="-300.44492"
       y1="-71.149246"
       x2="-279.98868"
       y2="19.641172"
       id="linearGradient6491"
       xlink:href="#linearGradient4447-0"
       gradientUnits="userSpaceOnUse"
       gradientTransform="translate(526.40521,73.42388)" /><linearGradient
       x1="-300.44492"
       y1="-71.149246"
       x2="-279.98868"
       y2="19.641172"
       id="linearGradient6493"
       xlink:href="#linearGradient4447-0"
       gradientUnits="userSpaceOnUse"
       gradientTransform="translate(526.40521,73.42388)" /><linearGradient
       x1="7.5762448"
       y1="-13.471379"
       x2="-1.6926591"
       y2="16.552998"
       id="linearGradient6556-0"
       xlink:href="#linearGradient6542-7"
       gradientUnits="userSpaceOnUse" /><linearGradient
       id="linearGradient6542-7"><stop
         id="stop6544-1"
         style="stop-color:#a32638;stop-opacity:1"
         offset="0" /><stop
         id="stop6546-1"
         style="stop-color:#3d97e3;stop-opacity:1"
         offset="1" /><stop
         id="stop6548-0"
         style="stop-color:#3d97e3;stop-opacity:1"
         offset="1" /></linearGradient><linearGradient
       x1="7.5762448"
       y1="-13.471379"
       x2="-1.6926591"
       y2="16.552998"
       id="linearGradient6540-6"
       xlink:href="#linearGradient6542-7"
       gradientUnits="userSpaceOnUse" /><linearGradient
       id="linearGradient6574"><stop
         id="stop6576"
         style="stop-color:#a32638;stop-opacity:1"
         offset="0" /><stop
         id="stop6578"
         style="stop-color:#3d97e3;stop-opacity:1"
         offset="1" /><stop
         id="stop6580"
         style="stop-color:#3d97e3;stop-opacity:1"
         offset="1" /></linearGradient><linearGradient
       x1="2.8060167"
       y1="-3.930923"
       x2="-1.6926591"
       y2="16.552998"
       id="linearGradient6665"
       xlink:href="#linearGradient6542"
       gradientUnits="userSpaceOnUse"
       gradientTransform="translate(222.2246,210.4482)" /><linearGradient
       x1="2.8060167"
       y1="-3.930923"
       x2="-1.6926591"
       y2="16.552998"
       id="linearGradient6667"
       xlink:href="#linearGradient6773"
       gradientUnits="userSpaceOnUse"
       gradientTransform="translate(222.2246,210.4482)" /><linearGradient
       x1="4.9105291"
       y1="-2.8075163"
       x2="14.603858"
       y2="28.483437"
       id="linearGradient6672"
       xlink:href="#linearGradient6167"
       gradientUnits="userSpaceOnUse"
       gradientTransform="translate(180.4507,202.7695)" /><linearGradient
       x1="-1.5"
       y1="7.5685"
       x2="74.568108"
       y2="45.85202"
       id="linearGradient6680"
       xlink:href="#linearGradient6167"
       gradientUnits="userSpaceOnUse"
       gradientTransform="translate(136.6387,199.8867)" /><linearGradient
       x1="23.531532"
       y1="-29.707657"
       x2="-4.2789745"
       y2="25.950691"
       id="linearGradient6686"
       xlink:href="#linearGradient6526"
       gradientUnits="userSpaceOnUse" /><linearGradient
       x1="3.3699248"
       y1="-74.590553"
       x2="5.2866092"
       y2="13.452135"
       id="linearGradient6697"
       xlink:href="#linearGradient6518"
       gradientUnits="userSpaceOnUse"
       gradientTransform="translate(201.0835,247.7041)" /><linearGradient
       x1="-4.738977"
       y1="2.4612992"
       x2="42.549362"
       y2="69.071144"
       id="linearGradient6719"
       xlink:href="#linearGradient6801"
       gradientUnits="userSpaceOnUse" /><linearGradient
       x1="-35.366192"
       y1="-6.670855"
       x2="146.64035"
       y2="38.091415"
       id="linearGradient6721"
       xlink:href="#linearGradient6167"
       gradientUnits="userSpaceOnUse" /><linearGradient
       x1="3.1478214"
       y1="-2.6652157"
       x2="5.5417805"
       y2="12.206672"
       id="linearGradient6751"
       xlink:href="#linearGradient6574"
       gradientUnits="userSpaceOnUse" /><linearGradient
       x1="3.1478214"
       y1="-2.6652157"
       x2="5.5417805"
       y2="12.206672"
       id="linearGradient6759"
       xlink:href="#linearGradient6574"
       gradientUnits="userSpaceOnUse" /><linearGradient
       x1="2.3060164"
       y1="-2.1040125"
       x2="-0.63145596"
       y2="11.364867"
       id="linearGradient6761"
       xlink:href="#linearGradient6765"
       gradientUnits="userSpaceOnUse" /><linearGradient
       x1="2.3060164"
       y1="-2.1040125"
       x2="-0.63145596"
       y2="11.364867"
       id="linearGradient6763"
       xlink:href="#linearGradient6574"
       gradientUnits="userSpaceOnUse" /><linearGradient
       x1="-29.367529"
       y1="-50.124847"
       x2="21.459352"
       y2="2.0733678"
       id="linearGradient6781"
       xlink:href="#linearGradient6167"
       gradientUnits="userSpaceOnUse" /><linearGradient
       x1="4.9024372"
       y1="-0.336086"
       x2="11.63162"
       y2="20.057034"
       id="linearGradient6791"
       xlink:href="#linearGradient6809"
       gradientUnits="userSpaceOnUse" /><linearGradient
       x1="4.9024372"
       y1="-0.336086"
       x2="11.63162"
       y2="20.057034"
       id="linearGradient6799"
       xlink:href="#linearGradient6773"
       gradientUnits="userSpaceOnUse" /><linearGradient
       x1="228.71602"
       y1="-72.408867"
       x2="489.2388"
       y2="-159.39539"
       id="linearGradient3887"
       xlink:href="#linearGradient6574"
       gradientUnits="userSpaceOnUse"
       gradientTransform="matrix(1.0866767,0,0,1.0866767,-41.872166,-2.4393863)" /><linearGradient
       x1="3.1478214"
       y1="-2.6652157"
       x2="5.5417805"
       y2="12.206672"
       id="linearGradient3347"
       xlink:href="#linearGradient6574"
       gradientUnits="userSpaceOnUse" /><linearGradient
       x1="3.1478214"
       y1="-2.6652157"
       x2="5.5417805"
       y2="12.206672"
       id="linearGradient3349"
       xlink:href="#linearGradient6574"
       gradientUnits="userSpaceOnUse" /></defs><g
     transform="matrix(1.25,0,0,-1.25,-124.04998,310.53324)"
     id="g3771">



<g
   transform="translate(-2.8060166,1.1224067)"
   id="g3314"><g
     transform="matrix(0.31226738,0,0,1,229.27523,124.332)"
     id="g3781"
     style="stroke:none"><path
       d="m 0,0 -389.274,0 c -7.19,0 -13.039,5.895 -13.039,13.139 l 0,93.199 c 0,7.245 5.849,13.139 13.039,13.139 l 146.41299,0 242.86101,0 c 7.19,0 13.041,-5.894 13.041,-13.139 l 0,-93.199 C 13.041,5.895 7.19,0 0,0"
       id="path3783"
       style="fill:#ffffff;fill-opacity:1;fill-rule:nonzero;stroke:none" /></g><path
     d="m 137.4805,200.65835 c 9.891,4.546 19.26105,10.65061 23.0606,14.1549"
     id="path3827"
     style="fill:none;stroke:url(#linearGradient6680);stroke-width:3;stroke-linecap:butt;stroke-linejoin:miter;stroke-miterlimit:4;stroke-opacity:1;stroke-dasharray:none" /><path
     d="m 133.32712,144.8164 c 0.107,7.437 0.54338,17.644 4.55738,24.303 4.108,6.811 8.394,13.083 15.757,18.174"
     id="path3831"
     style="fill:none;stroke:#a32638;stroke-width:3;stroke-linecap:butt;stroke-linejoin:miter;stroke-miterlimit:4;stroke-opacity:1;stroke-dasharray:none" /><path
     d="m 184.3438,192.5781 c 12.348,6.216 28.928,14.812 43.847,17.647"
     id="path3835"
     style="fill:none;stroke:#a32638;stroke-width:3;stroke-linecap:butt;stroke-linejoin:miter;stroke-miterlimit:4;stroke-opacity:1;stroke-dasharray:none" /><path
     d="m 144.66921,124.02895 c -9.5788,2.72195 -13.72791,20.16335 -10.24991,28.44435 3.196,7.616 7.273,12.115 15.213,19.594 2.166,2.041 5.579,4.936 7.793,6.356 3.24,2.078 7.23,4.857 10.709,6.996 5.022,3.086 5.479,3.553 8.729,5.828 1.731,1.21 4.356,5.403 7.518,10.39"
     id="path3839"
     style="fill:none;stroke:#a32638;stroke-width:3;stroke-linecap:butt;stroke-linejoin:miter;stroke-miterlimit:4;stroke-opacity:1;stroke-dasharray:none" /><g
     transform="translate(151.9893,187.2578)"
     id="g3877"><path
       d="m 0,0 c -0.02966283,2.5223602 -1.1662059,5.1565752 -0.594,8.442 0.17549586,4.739602 1.8340739,12.057874 5.9581889,15.948666 5.0800211,5.105049 5.6305711,5.353898 14.1922691,10.966798 7.568864,3.945784 34.449599,22.038151 33.406464,21.580388"
       id="path3879"
       style="fill:none;stroke:url(#linearGradient6719);stroke-width:3;stroke-linecap:butt;stroke-linejoin:miter;stroke-miterlimit:4;stroke-opacity:1;stroke-dasharray:none" /></g><g
     transform="translate(147.7856,187.2598)"
     id="g3881"><path
       d="M 0,0 C 0,2.319 1.881,4.203 4.205,4.203 6.526,4.203 8.409,2.319 8.409,0 8.409,-2.324 6.526,-4.206 4.205,-4.206 1.881,-4.206 0,-2.324 0,0"
       id="path3883"
       style="fill:url(#linearGradient6799);fill-opacity:1;fill-rule:nonzero;stroke:url(#linearGradient6791)" /></g><g
     transform="translate(119.8877,125.4209)"
     id="g3885"><path
       d="M 21.28025,0.37719157 C 14.96825,3.6181916 -0.0092505,6.7303416 -4.6050911,21.089 -7.0285482,27.94584 -6.892,37.864 -5.329,44.106 c 1.621,6.468 1.974,11.016 5.622,16.887 3.808,6.13 10.126,10.066 16.127,14.367"
       id="path3887"
       style="fill:none;stroke:#a32638;stroke-width:3;stroke-linecap:butt;stroke-linejoin:miter;stroke-miterlimit:4;stroke-opacity:1;stroke-dasharray:none" /></g><g
     transform="translate(131.5562,199.9473)"
     id="g3889"><path
       d="M 0,0 C 0,2.321 1.882,4.203 4.205,4.203 6.525,4.203 8.407,2.321 8.407,0 8.407,-2.322 6.525,-4.204 4.205,-4.204 1.882,-4.204 0,-2.322 0,0"
       id="path3891"
       style="fill:#a32638;fill-opacity:1;fill-rule:nonzero;stroke:none" /></g><g
     transform="translate(119.2817,217.0771)"
     id="g3893"><path
       d="M 0,0 C 13.582,3.224 27.365958,4.2541583 44.334466,8.4481646 58.980592,12.072776 74.254324,20.412958 87.164888,27.076958"
       id="path3895"
       style="fill:none;stroke:url(#linearGradient6721);stroke-width:3;stroke-linecap:butt;stroke-linejoin:miter;stroke-miterlimit:4;stroke-opacity:1;stroke-dasharray:none" /></g><g
     transform="translate(119.6421,185.5605)"
     id="g3897"><path
       d="M 0,0 C 2.7179758,8.1816418 4.359,22.449 -0.914,30.828"
       id="path3899"
       style="fill:none;stroke:#a32638;stroke-width:3;stroke-linecap:butt;stroke-linejoin:miter;stroke-miterlimit:4;stroke-opacity:1;stroke-dasharray:none" /></g><g
     transform="translate(114.5249,216.3926)"
     id="g3901"><path
       d="M 0,0 C 0,2.319 1.882,4.203 4.207,4.203 6.526,4.203 8.409,2.319 8.409,0 8.409,-2.325 6.526,-4.206 4.207,-4.206 1.882,-4.206 0,-2.325 0,0"
       id="path3903"
       style="fill:#a32638;fill-opacity:1;fill-rule:nonzero;stroke:none" /></g><g
     transform="translate(171.3101,187.4385)"
     id="g3905"><path
       d="m 0,0 c 3.495,1.61 9.654,4.39 15.151,5.629 2.443,0.55 11.266,2.429 18.885,3.228 3.235,0.336 6.639,0.622 11.169,1.188"
       id="path3907"
       style="fill:none;stroke:#a32638;stroke-width:3;stroke-linecap:butt;stroke-linejoin:miter;stroke-miterlimit:4;stroke-opacity:1;stroke-dasharray:none" /></g><path
     d="m 206.01012,244.02769 c -0.218,-3.376 -0.0116,-24.87259 0.20138,-27.94059 0.37,-5.321 0.736,-12.353 6.249,-16.247 1.116,-0.784 3.191,-2.082 4.055,-2.357"
     id="path3859"
     style="fill:none;stroke:url(#linearGradient6697);stroke-width:3;stroke-linecap:butt;stroke-linejoin:miter;stroke-miterlimit:4;stroke-opacity:1;stroke-dasharray:none" /><g
     transform="translate(212.3096,197.4854)"
     id="g3909"
     style="fill:url(#linearGradient3347);fill-opacity:1;stroke:url(#linearGradient3349)"><path
       d="M 0,0 C 0,2.321 1.882,4.205 4.207,4.205 6.527,4.205 8.409,2.321 8.409,0 8.409,-2.323 6.527,-4.204 4.207,-4.204 1.882,-4.204 0,-2.323 0,0"
       id="path3911"
       style="fill:url(#linearGradient6763);fill-opacity:1;fill-rule:nonzero;stroke:url(#linearGradient6761)" /></g><g
     transform="translate(205.3076,247.5674)"
     id="g3861"><path
       d="M 1.0232203,-3.4641217 C -2.325064,-15.443473 -13.663,-30.751 -17.071,-34.036 c -2.509,-3.445 -2.239,-3.735 -2.895,-5.249 -0.522,-2.093 -0.903,-3.835 -0.711,-6.173"
       id="path3863"
       style="fill:none;stroke:url(#linearGradient6781);stroke-width:3;stroke-linecap:butt;stroke-linejoin:miter;stroke-miterlimit:4;stroke-opacity:1;stroke-dasharray:none" /></g><path
     d="m 180.4507,202.7695 c 0,2.321 1.882,4.203 4.205,4.203 2.322,0 4.204,-1.882 4.204,-4.203 0,-2.322 -1.882,-4.206 -4.204,-4.206 -2.323,0 -4.205,1.884 -4.205,4.206"
     id="path3843"
     style="fill:url(#linearGradient6672);fill-opacity:1;fill-rule:nonzero;stroke:none" /><g
     transform="translate(205.7031,226.2754)"
     id="g3865"><path
       d="M 0.297623,0 C 1.8585463,-7.313 11.957,-12.792 20.725,-15.831"
       id="path3867"
       style="fill:none;stroke:url(#linearGradient6686);stroke-width:3;stroke-linecap:butt;stroke-linejoin:miter;stroke-miterlimit:4;stroke-opacity:1;stroke-dasharray:none" /></g><path
     d="m 222.2246,210.4482 c 0,2.319 1.882,4.202 4.205,4.202 2.322,0 4.204,-1.883 4.204,-4.202 0,-2.325 -1.882,-4.207 -4.204,-4.207 -2.323,0 -4.205,1.882 -4.205,4.207"
     id="path3847"
     style="fill:url(#linearGradient6665);fill-opacity:1;fill-rule:nonzero;stroke:url(#linearGradient6667)" /></g>
<path
   d="m 131.53203,4.1642532 a 2.1045125,3.2465177 0 1 1 -4.20902,0 2.1045125,3.2465177 0 1 1 4.20902,0 z"
   transform="matrix(0.44528434,-0.58985838,-0.62226527,-0.47782553,148.33611,323.93732)"
   id="path3351"
   style="fill:#3d97e3;fill-opacity:1;stroke:#3d97e3;stroke-width:1.72500002;stroke-linecap:butt;stroke-linejoin:round;stroke-miterlimit:4;stroke-opacity:1;stroke-dasharray:none;stroke-dashoffset:0" /></g></svg>