<?xml version="1.0" encoding="UTF-8" standalone="no"?>
<!-- Created with Inkscape (http://www.inkscape.org/) -->
<svg
   xmlns:dc="http://purl.org/dc/elements/1.1/"
   xmlns:cc="http://creativecommons.org/ns#"
   xmlns:rdf="http://www.w3.org/1999/02/22-rdf-syntax-ns#"
   xmlns:svg="http://www.w3.org/2000/svg"
   xmlns="http://www.w3.org/2000/svg"
   xmlns:sodipodi="http://sodipodi.sourceforge.net/DTD/sodipodi-0.dtd"
   xmlns:inkscape="http://www.inkscape.org/namespaces/inkscape"
   id="svg2"
   sodipodi:version="0.32"
   inkscape:version="0.46"
   width="145"
   height="75"
   version="1.0"
   sodipodi:docname="qsapecng.svg"
   inkscape:output_extension="org.inkscape.output.svg.inkscape">
  <metadata
     id="metadata7">
    <rdf:RDF>
      <cc:Work
         rdf:about="">
        <dc:format>image/svg+xml</dc:format>
        <dc:type
           rdf:resource="http://purl.org/dc/dcmitype/StillImage" />
      </cc:Work>
    </rdf:RDF>
  </metadata>
  <defs
     id="defs5">
    <inkscape:perspective
       sodipodi:type="inkscape:persp3d"
       inkscape:vp_x="0 : 526.18109 : 1"
       inkscape:vp_y="0 : 1000 : 0"
       inkscape:vp_z="744.09448 : 526.18109 : 1"
       inkscape:persp3d-origin="372.04724 : 350.78739 : 1"
       id="perspective9" />
  </defs>
  <sodipodi:namedview
     inkscape:window-height="745"
     inkscape:window-width="1270"
     inkscape:pageshadow="2"
     inkscape:pageopacity="0.0"
     guidetolerance="10.0"
     gridtolerance="10.0"
     objecttolerance="10.0"
     borderopacity="1.0"
     bordercolor="#666666"
     pagecolor="#ffffff"
     id="base"
     showgrid="false"
     inkscape:zoom="3.6308725"
     inkscape:cx="28.780961"
     inkscape:cy="22.033851"
     inkscape:window-x="0"
     inkscape:window-y="25"
     inkscape:current-layer="svg2" />
  <g
     id="g2384"
     transform="matrix(1.0033841,0,0,1.001874,-0.4081513,-16.177779)">
    <path
       style="fill:#d1d1d1"
       d="M 88,88 C 88,87.45 88.675,87 89.5,87 C 90.325,87 91,87.45 91,88 C 91,88.55 90.325,89 89.5,89 C 88.675,89 88,88.55 88,88 z M 85,85 C 85,84.45 87.025,84 89.5,84 C 91.975,84 94,84.45 94,85 C 94,85.55 91.975,86 89.5,86 C 87.025,86 85,85.55 85,85 z M 83,82 C 83,81.45 84.125,81 85.5,81 C 86.875,81 88,80.55 88,80 C 88,79.351852 75.333333,79 52,79 L 16,79 L 16,71 C 16,63.265669 15.921828,63 13.646023,63 C 7.7219746,63 2.6918282,53.309654 4.8597741,46.073696 C 6.1407612,41.798142 11.014656,37 14.076725,37 C 15.814152,37 16,36.226952 16,29 L 16,21 L 55.393011,21 C 90.234807,21 94.855493,20.818962 95.387326,19.433029 C 96.179679,17.368189 100.93692,17.922876 102.39402,20.25 C 103.18835,21.518611 103.18835,22.481389 102.39402,23.75 C 100.93692,26.077124 96.179679,26.631811 95.387326,24.566971 C 95.056609,23.705137 93.709167,23 92.393011,23 C 90.165601,23 90,23.372215 90,28.37868 C 90,33.412181 90.192526,33.837106 93,35 C 94.65,35.683452 96,36.769976 96,37.414498 C 96,38.059019 93.640775,39.741496 90.757278,41.153335 L 85.514555,43.720315 L 90.757278,46.377003 C 93.640775,47.838182 96,49.46853 96,50 C 96,50.53147 93.640775,52.161818 90.757278,53.622997 L 85.514555,56.279685 L 90.757278,58.846665 C 93.640775,60.258504 96,61.940981 96,62.585502 C 96,63.230024 94.65,64.316548 93,65 C 90.049991,66.221934 90,66.365596 90,73.62132 L 90,81 L 93,81 C 94.65,81 96,81.45 96,82 C 96,82.564103 93.166667,83 89.5,83 C 85.833333,83 83,82.564103 83,82 z M 88,71.031937 C 88,65.673398 88.25671,64.92937 90.513542,63.746897 L 93.027084,62.429919 L 87.513542,59.725825 C 84.481094,58.238573 82,56.643763 82,56.181803 C 82,55.719842 84.25,54.288031 87,53 C 89.75,51.711969 92,50.353391 92,49.980937 C 92,49.608483 90.197411,48.490894 87.994247,47.497406 C 81.175834,44.42273 81.095763,43.421749 87.42011,40.319999 C 93.023899,37.571643 93.025656,37.569333 90.513542,36.253103 C 88.25671,35.07063 88,34.326602 88,28.968063 L 88,23 L 53,23 L 18,23 L 18,30 C 18,36.871795 18.047619,37 20.6,37 C 22.223529,37 24.476923,38.276923 26.6,40.4 C 29.664258,43.464258 30,44.35789 30,49.44966 C 30,56.273577 28.154419,60.191092 23.989255,62.208341 L 20.874689,63.71677 L 24.01407,66.358385 C 25.740729,67.811273 27.681424,69.006891 28.326725,69.015313 C 29.006765,69.024188 28.872905,69.427088 28.008308,69.973704 C 26.180685,71.129164 22.108015,70.259722 19.75,68.210703 C 18.11299,66.788209 18,67.022861 18,71.845012 L 18,77 L 53,77 L 88,77 L 88,71.031937 z M 33.666667,58.333333 C 33.3,57.966667 33,56.637121 33,55.378788 L 33,53.090909 L 35.454545,55.545455 C 38.299028,58.389937 39.288046,58.562778 40.989431,56.512735 C 42.796304,54.335586 41.583432,52.289668 37.291992,50.275758 C 34.419216,48.927606 33.421882,47.815402 33.177742,45.687644 C 32.712021,41.628717 34.55753,40 39.622445,40 C 43.62517,40 44,40.214063 44,42.5 C 44,43.875 43.55,45 43,45 C 42.45,45 42,44.373145 42,43.606989 C 42,41.528762 38.855497,40.715932 37.204134,42.367294 C 35.40831,44.163118 36.227053,45.55329 40.313412,47.646644 C 42.066035,48.544475 43.830609,49.778775 44.234687,50.389532 C 45.381743,52.123289 45.126571,56.473429 43.8,57.8 C 42.535103,59.064897 34.805074,59.471741 33.666667,58.333333 z M 46.178941,57.25 C 46.997845,56.2875 48.921492,51.989885 50.453713,47.699744 C 52.390437,42.277012 53.686661,39.991006 54.706406,40.199744 C 55.521958,40.366684 57.577808,44.274063 59.336623,49 C 61.897406,55.88083 62.928604,57.560871 64.75,57.819551 C 66.922861,58.128146 67,57.864149 67,50.119241 C 67,43.536243 66.686465,41.916763 65.25,41.080099 C 63.926004,40.308942 65.037445,40.053415 69.815741,40.030409 C 77.587211,39.992991 80,41.141972 80,44.880196 C 80,48.488583 77.197652,51 73.171259,51 C 70.326174,51 70,51.303448 70,53.95031 C 70,55.705164 70.709094,57.313629 71.75,57.919901 C 73.032773,58.667048 71.097116,58.943213 64.5,58.954279 C 59.098923,58.963338 56.042595,58.62557 56.856892,58.109607 C 57.794269,57.515657 58.001584,56.283697 57.527437,54.12492 C 56.95708,51.528099 56.36561,51 54.027534,51 C 51.189464,51 50,52.476209 50,55.998454 C 50,57.007638 50.5625,58.060307 51.25,58.337719 C 51.9375,58.615132 50.742756,58.877632 48.595012,58.921053 C 44.972612,58.994287 44.797771,58.87336 46.178941,57.25 z M 56,49.434259 C 56,49.123101 55.501631,47.937306 54.892513,46.799159 C 54.004224,45.139376 53.611408,45.003945 52.907826,46.1149 C 51.445591,48.42377 51.888698,50 54,50 C 55.1,50 56,49.745416 56,49.434259 z M 74.977319,48.022681 C 77.183782,45.816218 76.755287,43.474585 73.861684,41.925976 C 71.198097,40.500467 70,41.575919 70,45.39235 C 70,50.452763 71.666534,51.333466 74.977319,48.022681 z M 21.433725,59.848243 C 23.928054,58.711751 24.210333,58.20841 25.43551,52.712534 C 26.306899,48.803678 24.356859,42.363362 21.748808,40.536612 C 14.865033,35.715028 8.0129258,42.974983 9.6695368,53.33486 C 10.758017,60.141842 15.286515,62.649099 21.433725,59.848243 z M 13,56 C 13,55.45 14.8,55 17,55 C 19.2,55 21,55.45 21,56 C 21,56.55 19.2,57 17,57 C 14.8,57 13,56.55 13,56 z M 16,46.5 C 16,45.675 15.325,45 14.5,45 C 13.675,45 13,44.55 13,44 C 13,43.45 13.675,43 14.5,43 C 15.325,43 16,42.325 16,41.5 C 16,40.675 16.45,40 17,40 C 17.55,40 18,40.675 18,41.5 C 18,42.325 18.675,43 19.5,43 C 20.325,43 21,43.45 21,44 C 21,44.55 20.325,45 19.5,45 C 18.675,45 18,45.675 18,46.5 C 18,47.325 17.55,48 17,48 C 16.45,48 16,47.325 16,46.5 z M 102.45455,56.545455 C 98.916183,53.007092 99.00427,46.268458 102.63636,42.636364 C 104.88537,40.387362 106.13427,40 111.13636,40 C 116.9648,40 117,40.017735 117,42.954545 L 117,45.909091 L 114.54545,43.454545 C 111.81404,40.723135 111.20905,40.589821 107.66312,41.937982 C 101.79804,44.167883 102.43063,55.887329 108.49828,57.410213 C 111.27516,58.107165 116,55.944777 116,53.976947 C 116,53.439626 116.45,53 117,53 C 118.39259,53 118.25314,56.346863 116.8,57.8 C 116.14,58.46 113.19455,59 110.25455,59 C 105.91246,59 104.44836,58.53927 102.45455,56.545455 z M 119.75,44.337719 C 120.44489,44.057325 121,42.130994 121,40 C 121,37.869006 120.44489,35.942675 119.75,35.662281 C 119.0625,35.384868 119.625,35.126775 121,35.088739 C 122.8642,35.037171 124.06097,35.9708 125.70573,38.759792 L 127.91147,42.5 L 127.95573,39.333333 C 127.98008,37.591667 127.4375,35.939693 126.75,35.662281 C 126.0625,35.384868 126.85,35.157895 128.5,35.157895 C 130.15,35.157895 130.9375,35.384868 130.25,35.662281 C 129.51481,35.958935 129,37.985673 129,40.583333 C 129,43.0125 128.5867,45 128.08156,45 C 127.57642,45 126.11392,43.3125 124.83156,41.25 L 122.5,37.5 L 122.16992,40.391493 C 121.98245,42.033825 122.41446,43.647257 123.16992,44.126181 C 124.05499,44.687266 123.49629,44.948084 121.5,44.90574 C 119.85,44.870741 119.0625,44.615132 119.75,44.337719 z M 133.32006,43.801065 C 131.60052,41.585088 131.22892,39.591141 132.09918,37.25 C 132.77684,35.426952 133.70069,35 136.96778,35 C 140.09614,35 141,35.381069 141,36.7 C 141,38.022222 140.73333,38.133333 139.8,37.2 C 138.19659,35.596591 135.5099,35.680676 134.10095,37.378363 C 132.41258,39.41273 134.4038,44 136.97525,44 C 139.22414,44 139.64784,42.047838 137.8,40.2 C 136.86667,39.266667 137.10365,39 138.86642,39 C 140.74892,39 141.07924,39.465835 140.81642,41.75 C 140.55678,44.006495 139.94635,44.554028 137.41483,44.801065 C 135.71798,44.966651 133.87533,44.516651 133.32006,43.801065 z"
       id="path2398" />
    <path
       style="fill:#acacac"
       d="M 88,88 C 88,87.45 88.675,87 89.5,87 C 90.325,87 91,87.45 91,88 C 91,88.55 90.325,89 89.5,89 C 88.675,89 88,88.55 88,88 z M 85,85 C 85,84.45 87.025,84 89.5,84 C 91.975,84 94,84.45 94,85 C 94,85.55 91.975,86 89.5,86 C 87.025,86 85,85.55 85,85 z M 83,82 C 83,81.45 84.125,81 85.5,81 C 86.875,81 88,80.55 88,80 C 88,79.351852 75.333333,79 52,79 L 16,79 L 16,71 C 16,63.773048 15.814152,63 14.076725,63 C 11.173221,63 6.281396,58.382668 4.9676884,54.402095 C 2.6767861,47.460593 6.7726257,38.867761 13.027032,37.494063 L 16,36.841089 L 16,28.920545 L 16,21 L 55.377555,21 C 89.705362,21 94.91989,20.801453 96.04005,19.451743 C 96.746766,18.600202 98.264367,18.037702 99.412495,18.201743 C 101.07474,18.43924 101.5,19.213013 101.5,22 C 101.5,24.786987 101.07474,25.56076 99.412495,25.798257 C 98.264367,25.962298 96.746766,25.399798 96.04005,24.548257 C 95.333333,23.696716 93.685211,23 92.377555,23 C 90.168837,23 90,23.381956 90,28.37868 C 90,33.412181 90.192526,33.837106 93,35 C 94.65,35.683452 96,36.630832 96,37.105289 C 96,37.579746 93.512986,39.225516 90.473302,40.762557 L 84.946604,43.557177 L 90.473302,46.267723 C 93.512986,47.758523 96,49.356237 96,49.818197 C 96,50.280158 93.75,51.711969 91,53 C 88.25,54.288031 86,55.638031 86,56 C 86,56.361969 88.25,57.711969 91,59 C 93.75,60.288031 96,61.703397 96,62.145257 C 96,62.587118 94.65,63.646752 93,64.5 C 90.072622,66.013806 90,66.232294 90,73.52568 L 90,81 L 93,81 C 94.65,81 96,81.45 96,82 C 96,82.564103 93.166667,83 89.5,83 C 85.833333,83 83,82.564103 83,82 z M 88,71.031937 C 88,65.548097 88.221469,64.947835 90.729614,63.633685 L 93.459228,62.203496 L 87.783125,59.419674 C 84.661268,57.888572 82.339788,56.259229 82.62428,55.798911 C 82.908772,55.338593 85.45662,53.788828 88.286165,52.354989 L 93.430791,49.74801 L 87.715396,46.857974 C 84.571928,45.268454 82,43.757366 82,43.5 C 82,43.242634 84.521478,41.757057 87.603285,40.198716 L 93.20657,37.36537 L 90.603285,35.659632 C 88.323409,34.1658 88,33.273486 88,28.476947 L 88,23 L 53,23 L 18,23 L 18,29.823635 L 18,36.647269 L 21.716367,37.573635 C 26.737757,38.825299 30.005127,43.695103 29.985258,49.897883 C 29.967075,55.574417 28.402881,58.811882 24.363076,61.534306 C 21.735247,63.3052 21.443246,63.88569 22.472331,65.293047 C 23.141704,66.208469 24.996764,67.639252 26.594686,68.472565 L 29.5,69.987679 L 25.972506,69.993839 C 24.032385,69.997228 21.444885,69.299483 20.222506,68.443296 C 18.013609,66.896124 18,66.917557 18,71.943296 L 18,77 L 53,77 L 88,77 L 88,71.031937 z M 33.666667,58.333333 C 33.3,57.966667 33,56.591573 33,55.27757 L 33,52.888473 L 35.439408,55.694236 C 37.449739,58.006484 38.197287,58.304936 39.689408,57.391014 C 42.777044,55.499839 41.836281,52.724521 37.25,50.194585 C 33.771264,48.275605 33,47.325711 33,44.960259 C 33,41.493041 35.676456,39.743206 40.296206,40.190088 C 42.868,40.438865 43.557129,40.993165 43.789603,43 L 44.079207,45.5 L 42.081595,43 C 40.449486,40.957425 39.756103,40.702581 38.291992,41.607183 C 35.383619,43.404123 35.553177,45.848038 38.678795,47.182357 C 44.891961,49.834743 46.833694,54.023449 43.428571,57.428571 C 41.872609,58.984534 34.958671,59.625338 33.666667,58.333333 z M 45.690134,58.357675 C 46.344708,58.091238 48.318788,53.851764 50.076979,48.936622 C 51.841356,44.004187 53.84749,40 54.554308,40 C 55.261799,40 57.275727,44.027857 59.054308,49 C 61.875252,56.886139 62.56616,58 64.636845,58 C 66.934093,58 67,57.764986 67,49.573324 C 67,42.388803 66.742037,41.079236 65.25,40.689326 C 64.2875,40.437798 66.505357,40.179802 70.178571,40.116001 C 75.036175,40.031629 77.285606,40.428463 78.428571,41.571429 C 82.163458,45.306315 78.750909,51 72.777494,51 C 70.281202,51 70,51.346928 70,54.426676 C 70,56.849292 70.512772,57.987353 71.75,58.310674 C 72.7125,58.562202 69.675,58.784672 65,58.805051 C 60.325,58.825431 57.013848,58.631349 57.641884,58.373758 C 58.477846,58.030885 58.499874,56.980396 57.724103,54.452705 C 56.84513,51.588749 56.186368,51 53.860811,51 C 51.541411,51 50.908153,51.561322 50.194311,54.25 C 49.625736,56.391529 49.701251,57.750578 50.415719,58.234687 C 51.012073,58.638765 49.925,58.940739 48,58.90574 C 46.075,58.870741 45.03556,58.624111 45.690134,58.357675 z M 56,49.5651 C 56,49.325904 55.50044,47.863404 54.889867,46.3151 C 53.858374,43.699418 53.721676,43.641677 52.960152,45.5 C 51.610899,48.792541 51.889915,50 54,50 C 55.1,50 56,49.804295 56,49.5651 z M 75.428571,48.428571 C 76.292857,47.564286 77,46.246429 77,45.5 C 77,43.520936 74.158945,41 71.928571,41 C 70.309524,41 70,41.722222 70,45.5 C 70,49.277778 70.309524,50 71.928571,50 C 72.989286,50 74.564286,49.292857 75.428571,48.428571 z M 21.985656,60.007677 C 26.391359,57.649816 27.015319,45.015319 22.927918,40.927918 C 21.758472,39.758472 19.623047,39 17.5,39 C 15.376953,39 13.241528,39.758472 12.072082,40.927918 C 8.0824046,44.917595 8.5795226,57.484772 12.825006,59.961877 C 15.011506,61.23763 19.644188,61.260792 21.985656,60.007677 z M 13.5,56 C 13.839919,55.45 15.414919,55 17,55 C 18.585081,55 20.160081,55.45 20.5,56 C 20.873806,56.60483 19.490712,57 17,57 C 14.509288,57 13.126194,56.60483 13.5,56 z M 14.575035,44.940567 C 12.87329,43.22503 12.8443,43 14.325035,43 C 15.246266,43 16,42.325 16,41.5 C 16,40.675 16.45,40 17,40 C 17.55,40 18,40.675 18,41.5 C 18,42.325 18.759853,43 19.688561,43 C 21.120581,43 21.050969,43.303858 19.230375,45 C 16.689324,47.367349 16.986064,47.371138 14.575035,44.940567 z M 100,22 C 100,21.45 99.55,21 99,21 C 98.45,21 98,21.45 98,22 C 98,22.55 98.45,23 99,23 C 99.55,23 100,22.55 100,22 z M 104.22896,58.330706 C 102.29349,57.551976 100,52.47687 100,48.972737 C 100,46.837654 100.9438,44.902355 102.97616,42.869991 C 105.63863,40.20752 106.5082,39.925773 111.22616,40.196914 C 115.9969,40.471087 116.53209,40.738488 116.83642,43 L 117.17284,45.5 L 115.04747,43.25 C 112.44625,40.496261 109.00039,40.369347 105.86078,42.911647 C 103.98878,44.427507 103.5,45.791557 103.5,49.5 C 103.5,53.208443 103.98878,54.572493 105.86078,56.088353 C 109.15784,58.758149 112.47116,58.487769 114.94142,55.347338 C 117.42475,52.190299 118.45113,52.683229 117.05273,56.361312 C 116.13737,58.768899 115.58753,58.993086 110.77475,58.921053 C 107.87364,58.877632 104.92803,58.611976 104.22896,58.330706 z M 120.5,40 C 120.5,33.904904 121.91672,33.554283 125.55076,38.75 L 128.17362,42.5 L 127.78761,38.75 C 127.5616,36.554387 127.8365,34.999742 128.4508,34.999378 C 129.08944,34.999 129.36441,36.955548 129.15349,39.999378 C 128.9629,42.74972 128.5129,44.996761 128.15349,44.992803 C 127.79407,44.988845 126.23583,43.076345 124.69073,40.742803 L 121.88147,36.5 L 122.21716,40.75 C 122.41128,43.207646 122.11998,45 121.52643,45 C 120.96138,45 120.5,42.752485 120.5,40 z M 133.2,43.8 C 132.54,43.14 132,41.43 132,40 C 132,38.57 132.54,36.86 133.2,36.2 C 134.62325,34.776752 139.63348,34.597934 140.46339,35.940766 C 140.80685,36.496501 139.64558,36.654467 137.62599,36.326732 C 134.77736,35.864463 134.09726,36.118214 133.54818,37.848194 C 132.67043,40.613746 134.58985,44 137.03518,44 C 139.24854,44 139.82536,40.499707 137.75,39.662281 C 137.0625,39.384868 137.56064,39.122368 138.85699,39.078947 C 140.61083,39.020202 141.05865,39.404772 140.60699,40.581787 C 140.27314,41.451771 140,42.801771 140,43.581787 C 140,45.341472 134.90497,45.504971 133.2,43.8 z"
       id="path2396" />
    <path
       style="fill:#8b8b8b"
       d="M 88,88 C 88,87.45 88.675,87 89.5,87 C 90.325,87 91,87.45 91,88 C 91,88.55 90.325,89 89.5,89 C 88.675,89 88,88.55 88,88 z M 85,85 C 85,84.45 87.025,84 89.5,84 C 91.975,84 94,84.45 94,85 C 94,85.55 91.975,86 89.5,86 C 87.025,86 85,85.55 85,85 z M 83,82 C 83,81.45 84.125,81 85.5,81 C 86.875,81 88,80.55 88,80 C 88,79.351852 75.333333,79 52,79 L 16,79 L 16,71 C 16,63.773048 15.814152,63 14.076725,63 C 10.961892,63 6.1294853,58.194588 4.9904314,53.964465 C 3.1257546,47.039584 6.3847163,40.075155 12.529634,37.853124 L 16,36.598223 L 16,28.799112 L 16,21 L 55.035183,21 C 89.317131,21 94.371112,20.802944 96.540189,19.38171 C 98.529443,18.078301 99.300903,18.004838 100.50501,19.004155 C 101.32725,19.686559 102,21.034689 102,22 C 102,22.965311 101.32725,24.313441 100.50501,24.995845 C 99.300903,25.995162 98.529443,25.921699 96.540189,24.61829 C 95.181787,23.728231 93.154534,23 92.035183,23 C 90.236118,23 90,23.635121 90,28.47432 C 90,33.545484 90.220935,34.062889 93,35.5 C 94.65,36.353248 96,37.25759 96,37.509649 C 96,37.761707 93.413968,39.275585 90.253262,40.873822 L 84.506523,43.779707 L 90.253262,46.598171 C 93.413968,48.148327 96,49.67915 96,50 C 96,50.32085 93.413968,51.851673 90.253262,53.401829 L 84.506523,56.220293 L 90.253262,59.126178 C 93.413968,60.724415 96,62.238293 96,62.490351 C 96,62.74241 94.65,63.646752 93,64.5 C 90.072622,66.013806 90,66.232294 90,73.52568 L 90,81 L 93,81 C 94.65,81 96,81.45 96,82 C 96,82.564103 93.166667,83 89.5,83 C 85.833333,83 83,82.564103 83,82 z M 88.5,70.749793 C 88.5,67.58718 88.751492,64.99968 89.05887,64.999793 C 89.366249,64.999907 90.468378,64.377999 91.508045,63.617775 C 93.269666,62.329647 93.044412,62.056197 88.199175,59.60093 C 85.339629,58.151888 83,56.600811 83,56.154091 C 83,55.707372 85.25,54.288031 88,53 C 90.75,51.711969 93,50.37879 93,50.037381 C 93,49.695971 90.413968,48.148327 87.253262,46.598171 L 81.506523,43.779707 L 87.435543,40.78165 L 93.364563,37.783593 L 91.023868,36.018004 C 89.007172,34.496807 88.708622,33.473636 88.867023,28.626207 L 89.050874,23 L 53.525437,23 L 18,23 L 18,30 C 18,35.655253 18.2977,37 19.54966,37 C 22.437692,37 26.959056,40.020144 28.483073,42.967267 C 30.315275,46.510355 30.435268,53.58153 28.720689,56.969985 C 28.033285,58.328476 26.065396,60.387113 24.347604,61.544733 C 21.829793,63.241486 21.415896,63.991781 22.212481,65.415199 C 22.755956,66.386335 24.617979,67.797585 26.350309,68.551309 L 29.5,69.921716 L 25.972506,69.960858 C 24.032385,69.982386 21.444885,69.299483 20.222506,68.443296 C 18.013388,66.895969 18,66.91713 18,71.956089 L 18,77.025585 L 53.25,76.762793 L 88.5,76.5 L 88.5,70.749793 z M 34.25,58.337719 C 33.5625,58.060307 33.030456,56.633333 33.06768,55.166667 C 33.134277,52.542711 33.152584,52.535685 34.210677,54.727998 C 35.540419,57.483152 38.613568,58.5656 40.547988,56.960174 C 42.938334,54.976362 42.230186,53.286495 37.75,50.283282 C 35.4125,48.716381 33.363552,46.492728 33.196783,45.341831 C 32.728919,42.11304 35.67156,39.84587 39.874379,40.19705 C 42.899517,40.449825 43.547965,40.914055 43.789603,43 L 44.079207,45.5 L 42.205844,43.144661 C 39.96165,40.323082 36.631048,40.605585 36.194294,43.654562 C 35.961527,45.279507 36.915893,46.354317 40.194294,48.159374 C 45.050002,50.83288 46.202008,54.014315 43.42537,57.082465 C 41.778004,58.902784 37.201881,59.528829 34.25,58.337719 z M 46.295209,57.561934 C 47.086145,56.770998 48.996174,52.495998 50.539718,48.061934 C 52.083262,43.62787 53.888093,40 54.550454,40 C 55.212816,40 57.207281,44.028284 58.982599,48.951742 C 60.757917,53.8752 62.725599,58.114673 63.355225,58.372794 C 63.984851,58.630915 62.7,58.870741 60.5,58.90574 C 58.133257,58.943392 57.015283,58.642271 57.761977,58.168268 C 58.74126,57.546617 58.771081,56.641769 57.895104,54.128939 C 56.912102,51.309097 56.369968,50.930076 53.699043,51.195358 C 51.255921,51.438014 50.471999,52.102226 49.846301,54.459762 C 49.316439,56.456196 49.457723,57.671742 50.280384,58.194449 C 50.999527,58.651381 50.137041,58.975658 48.178571,58.984687 C 45.289766,58.998005 45.044454,58.812689 46.295209,57.561934 z M 56,48.69113 C 56,47.971251 55.393078,46.552243 54.651283,45.537779 C 53.390838,43.814018 53.230622,43.899681 52.203303,46.84665 C 51.165026,49.825054 51.239852,50 53.55202,50 C 54.90246,50 56,49.413174 56,48.69113 z M 65.75,58.337719 C 66.609649,57.990843 67,55.230994 67,49.5 C 67,43.769006 66.609649,41.009157 65.75,40.662281 C 65.0625,40.384868 67.242756,40.122368 70.595012,40.078947 C 75.298675,40.018022 77.06782,40.417459 78.345012,41.828741 C 81.954688,45.817388 78.808524,51 72.777494,51 C 70.281202,51 70,51.346928 70,54.426676 C 70,56.849292 70.512772,57.987353 71.75,58.310674 C 72.7125,58.562202 71.475,58.784672 69,58.805051 C 66.525,58.825431 65.0625,58.615132 65.75,58.337719 z M 75.428571,48.428571 C 77.573786,46.283357 77.403708,43.286425 75.065741,42.035184 C 71.131655,39.929725 70,40.703743 70,45.5 C 70,49.277778 70.309524,50 71.928571,50 C 72.989286,50 74.564286,49.292857 75.428571,48.428571 z M 22.944223,59.055777 C 25.319793,56.680207 26.450934,51.217221 25.555514,46.444223 C 24.651243,41.624044 21.811723,39 17.5,39 C 15.366803,39 13.240751,39.759249 12.055777,40.944223 C 8.4181322,44.581868 8.1567298,53.537869 11.537598,58.697726 C 13.516394,61.71775 20.076335,61.923665 22.944223,59.055777 z M 13.5,56 C 13.839919,55.45 15.414919,55 17,55 C 18.585081,55 20.160081,55.45 20.5,56 C 20.873806,56.60483 19.490712,57 17,57 C 14.509288,57 13.126194,56.60483 13.5,56 z M 14.575035,44.940567 C 12.87329,43.22503 12.8443,43 14.325035,43 C 15.246266,43 16,42.325 16,41.5 C 16,40.675 16.45,40 17,40 C 17.55,40 18,40.675 18,41.5 C 18,42.325 18.759853,43 19.688561,43 C 21.120581,43 21.050969,43.303858 19.230375,45 C 16.689324,47.367349 16.986064,47.371138 14.575035,44.940567 z M 100,22 C 100,21.45 99.55,21 99,21 C 98.45,21 98,21.45 98,22 C 98,22.55 98.45,23 99,23 C 99.55,23 100,22.55 100,22 z M 104.36408,57.83041 C 99.285009,55.371081 98.537075,47.309079 102.97616,42.869991 C 105.63863,40.20752 106.5082,39.925773 111.22616,40.196914 C 115.9969,40.471087 116.53209,40.738488 116.83642,43 L 117.17284,45.5 L 115.04747,43.25 C 110.56151,38.501006 103,42.423776 103,49.5 C 103,56.51778 110.57778,60.516319 114.96104,55.811439 C 116.99237,53.631068 117,53.630668 117,55.70445 C 117,56.849315 116.2882,58.059167 115.41821,58.393011 C 113.02077,59.312997 106.76882,58.994803 104.36408,57.83041 z M 120.5,40 C 120.5,34.020159 121.93556,33.541637 125,38.5 C 126.18972,40.425 127.40065,42 127.69097,42 C 127.98128,42 128.03494,40.425 127.81021,38.5 C 127.57257,36.464501 127.84062,34.99974 128.4508,34.999378 C 129.08944,34.999 129.36441,36.955548 129.15349,39.999378 C 128.9629,42.74972 128.5129,44.996761 128.15349,44.992803 C 127.79407,44.988845 126.23583,43.076345 124.69073,40.742803 L 121.88147,36.5 L 122.21716,40.75 C 122.41128,43.207646 122.11998,45 121.52643,45 C 120.96138,45 120.5,42.752485 120.5,40 z M 133.2,43.8 C 132.54,43.14 132,41.43 132,40 C 132,38.57 132.54,36.86 133.2,36.2 C 134.58148,34.818521 139.62369,34.582097 140.41454,35.861717 C 140.70745,36.335662 139.27151,36.673162 137.22355,36.611717 C 134.05696,36.51671 133.45112,36.844783 133.17324,38.805042 C 132.76834,41.661233 134.59876,44 137.23902,44 C 138.82687,44 139.13579,43.490652 138.75525,41.5 C 138.46238,39.967937 138.73736,39 139.46548,39 C 140.21681,39 140.49174,40.102919 140.21331,42 C 139.84938,44.479607 139.30699,45 137.0865,45 C 135.60893,45 133.86,44.46 133.2,43.8 z"
       id="path2394" />
    <path
       style="fill:#737373"
       d="M 88,88 C 88,87.45 88.675,87 89.5,87 C 90.325,87 91,87.45 91,88 C 91,88.55 90.325,89 89.5,89 C 88.675,89 88,88.55 88,88 z M 87.26375,85.282419 C 88.783812,85.052564 91.033812,85.058707 92.26375,85.296069 C 93.493687,85.533431 92.25,85.721493 89.5,85.713986 C 86.75,85.706478 85.743687,85.512273 87.26375,85.282419 z M 84.925861,82.122737 C 86.260085,81.74989 87.535085,80.894746 87.759194,80.222417 C 88.07525,79.274251 80.071316,79 52.083333,79 L 16,79 L 16,71 C 16,63.567901 15.852564,63 13.923077,63 C 11.019225,63 6.3838851,58.049849 5.1695827,53.652008 C 3.353697,47.075412 6.6367268,39.984027 12.474631,37.873013 L 16,36.598223 L 16,28.799112 L 16,21 L 55.3,21 C 82.211741,21 94.941911,20.658089 95.684665,19.915335 C 96.281231,19.318769 97.833731,18.981269 99.134665,19.165335 C 102.51584,19.643728 102.51584,24.356272 99.134665,24.834665 C 97.833731,25.018731 96.281231,24.681231 95.684665,24.084665 C 95.088099,23.488099 93.565,23 92.3,23 C 90.180096,23 90,23.428653 90,28.47432 C 90,33.545484 90.220935,34.062889 93,35.5 C 94.65,36.353248 96,37.25759 96,37.509649 C 96,37.761707 93.413968,39.275585 90.253262,40.873822 L 84.506523,43.779707 L 90.253262,46.598171 C 93.413968,48.148327 96,49.67915 96,50 C 96,50.32085 93.413968,51.851673 90.253262,53.401829 L 84.506523,56.220293 L 90.253262,59.126178 C 93.413968,60.724415 96,62.238293 96,62.490351 C 96,62.74241 94.65,63.646752 93,64.5 C 90.050216,66.025393 90,66.183778 90,73.962322 L 90,81.873283 L 93.25,82.276604 C 95.0375,82.498431 93.35,82.707087 89.5,82.740283 C 85.434849,82.775334 83.517076,82.51642 84.925861,82.122737 z M 88.5,71.5 C 88.5,65.982578 88.722459,65.37663 91.265882,63.966107 L 94.031764,62.432214 L 88.515882,59.726972 C 85.482147,58.239089 83,56.643763 83,56.181803 C 83,55.719842 85.25,54.288031 88,53 C 90.75,51.711969 93,50.361969 93,50 C 93,49.638031 90.75,48.288031 88,47 C 85.25,45.711969 83,44.280158 83,43.818197 C 83,43.356237 85.481094,41.761427 88.513542,40.274175 L 94.027084,37.570081 L 91.513542,36.253103 C 89.25671,35.07063 89,34.326602 89,28.968063 L 89,23 L 53.5,23 L 18,23 L 18,30 C 18,35.655253 18.2977,37 19.54966,37 C 22.731307,37 27.199723,40.233756 28.578778,43.534299 C 31.574752,50.704674 29.17055,59.598279 23.543075,62.162328 C 21.554282,63.068482 21.270599,63.637102 22.065919,65.123171 C 22.607319,66.134786 24.276469,67.627898 25.775141,68.441198 L 28.5,69.919925 L 25.714817,69.959962 C 24.182966,69.981983 21.820466,69.273246 20.464817,68.38499 L 18,66.76998 L 18,72.397783 L 18,78.025585 L 53.25,77.762793 L 88.5,77.5 L 88.5,71.5 z M 34.25,58.337719 C 33.5625,58.060307 33.030456,56.633333 33.06768,55.166667 C 33.135055,52.512026 33.140298,52.510245 34.230194,54.771736 C 36.136303,58.726839 42,58.971532 42,55.095971 C 42,53.214167 39.052137,50 37.326247,50 C 35.847695,50 33,46.594446 33,44.826247 C 33,42.151468 36.566597,39.835731 40.15646,40.179665 C 42.864478,40.439112 43.560562,40.975187 43.818624,43 L 44.137249,45.5 L 42.472068,43.193102 C 40.39129,40.310448 36.631054,40.580732 36.194294,43.644346 C 35.960964,45.281021 36.907961,46.34995 40.194294,48.159374 C 45.050002,50.83288 46.202008,54.014315 43.42537,57.082465 C 41.778004,58.902784 37.201881,59.528829 34.25,58.337719 z M 46.171506,57.75 C 47.026078,57.0625 49.016866,52.7875 50.595481,48.25 C 52.174095,43.7125 53.998954,40 54.650722,40 C 55.302491,40 57.037068,43.607215 58.50534,48.016033 C 59.973611,52.424851 61.842709,56.699851 62.65889,57.516033 C 63.970846,58.827989 63.699904,58.998225 60.321429,58.984687 C 58.017908,58.975457 57.001269,58.651167 57.761977,58.168268 C 58.74126,57.546617 58.771081,56.641769 57.895104,54.128939 C 56.912102,51.309097 56.369968,50.930076 53.699043,51.195358 C 51.255921,51.438014 50.471999,52.102226 49.846301,54.459762 C 49.316439,56.456196 49.457723,57.671742 50.280384,58.194449 C 50.994614,58.64826 50.07406,58.97572 48.05887,58.984687 C 45.145053,58.997653 44.855837,58.808452 46.171506,57.75 z M 55.986345,49.25 C 55.951128,47.315662 54.684765,44 53.981194,44 C 53.549145,44 52.725038,45.35 52.149845,47 C 51.173362,49.801141 51.266307,50 53.55202,50 C 54.898409,50 55.993855,49.6625 55.986345,49.25 z M 65.75,58.337719 C 66.609649,57.990843 67,55.230994 67,49.5 C 67,43.769006 66.609649,41.009157 65.75,40.662281 C 65.0625,40.384868 66.987372,40.122368 70.027494,40.078947 C 76.165655,39.991278 80,41.905183 80,45.056704 C 80,47.954335 76.412822,51 73,51 C 70.250323,51 70,51.285925 70,54.426676 C 70,56.849292 70.512772,57.987353 71.75,58.310674 C 72.7125,58.562202 71.475,58.784672 69,58.805051 C 66.525,58.825431 65.0625,58.615132 65.75,58.337719 z M 75.8,48.8 C 78.681106,45.918894 76.473909,41 72.3,41 C 70.240741,41 70,41.471014 70,45.5 C 70,49.528986 70.240741,50 72.3,50 C 73.565,50 75.14,49.46 75.8,48.8 z M 22.988322,59.210539 C 24.487694,57.996422 25.366765,55.925691 25.722451,52.770051 C 26.745026,43.697796 23.764256,39 16.985302,39 C 13.541117,39 12.680643,39.461846 10.93016,42.25 C 8.326348,46.397328 8.6287424,55.827296 11.466087,58.962526 C 13.812884,61.555708 19.929568,61.687368 22.988322,59.210539 z M 14.75,56.294267 C 15.9875,56.055914 18.0125,56.055914 19.25,56.294267 C 20.4875,56.53262 19.475,56.727636 17,56.727636 C 14.525,56.727636 13.5125,56.53262 14.75,56.294267 z M 16,45.5 C 16,44.675 15.2125,43.947799 14.25,43.883999 C 12.583333,43.773521 12.583333,43.74622 14.25,43.310674 C 15.2125,43.059147 16,42.211348 16,41.426676 C 16,40.642004 16.45,40 17,40 C 17.55,40 18,40.642004 18,41.426676 C 18,42.211348 18.7875,43.059147 19.75,43.310674 C 21.416667,43.74622 21.416667,43.773521 19.75,43.883999 C 18.7875,43.947799 18,44.675 18,45.5 C 18,46.325 17.55,47 17,47 C 16.45,47 16,46.325 16,45.5 z M 100,22 C 100,21.45 99.325,21 98.5,21 C 97.675,21 97,21.45 97,22 C 97,22.55 97.675,23 98.5,23 C 99.325,23 100,22.55 100,22 z M 102.79788,55.951729 C 100.11689,53.270741 99.815846,52.409634 100.29933,48.80498 C 100.97346,43.778958 103.47232,41.122167 108.25549,40.345965 C 113.41426,39.508813 117,40.604931 117,43.019052 C 117,44.987299 116.98718,44.987176 115,43 C 110.58726,38.587256 103,42.583012 103,49.319687 C 103,56.574996 110.33928,60.66072 115,56 C 116.92464,54.075357 117,54.071326 117,55.893011 C 117,58.186669 115.12603,59 109.84129,59 C 106.72152,59 105.17825,58.332096 102.79788,55.951729 z M 120.5,40 C 120.5,34.020159 121.93556,33.541637 125,38.5 C 126.18972,40.425 127.40065,42 127.69097,42 C 127.98128,42 128.03494,40.425 127.81021,38.5 C 127.57257,36.464501 127.84062,34.99974 128.4508,34.999378 C 129.08944,34.999 129.36441,36.955548 129.15349,39.999378 C 128.9629,42.74972 128.5129,44.996761 128.15349,44.992803 C 127.79407,44.988845 126.23583,43.076345 124.69073,40.742803 L 121.88147,36.5 L 122.21716,40.75 C 122.41128,43.207646 122.11998,45 121.52643,45 C 120.96138,45 120.5,42.752485 120.5,40 z M 133.2,43.8 C 132.54,43.14 132,41.43 132,40 C 132,38.57 132.54,36.86 133.2,36.2 C 134.51091,34.88909 140,34.533644 140,35.759666 C 140,36.177483 138.5375,36.514983 136.75,36.509666 C 134.1143,36.501827 133.43824,36.935686 133.17324,38.805042 C 132.51337,43.459823 138.41779,46.300564 139.29427,41.75 C 139.66584,39.820854 139.74706,39.892155 139.86382,42.25 C 139.98156,44.627662 139.62089,45 137.2,45 C 135.66,45 133.86,44.46 133.2,43.8 z"
       id="path2392" />
    <path
       style="fill:#4b4b4b"
       d="M 88,88 C 88,87.45 88.675,87 89.5,87 C 90.325,87 91,87.45 91,88 C 91,88.55 90.325,89 89.5,89 C 88.675,89 88,88.55 88,88 z M 87.26375,85.282419 C 88.783812,85.052564 91.033812,85.058707 92.26375,85.296069 C 93.493687,85.533431 92.25,85.721493 89.5,85.713986 C 86.75,85.706478 85.743687,85.512273 87.26375,85.282419 z M 84.5,82.27639 C 85.6,82.006006 87.132145,81.270707 87.904767,80.642392 C 88.966362,79.779076 80.416162,79.377854 52.904767,79 L 16.5,78.5 L 16.210335,70.883285 L 15.92067,63.266569 L 12.728446,62.351052 C 2.6389885,59.457433 2.3805834,41.339709 12.381695,38.039044 L 15.918177,36.8719 L 16.209089,29.18595 L 16.5,21.5 L 56.25,21.238526 C 83.298375,21.060602 96,20.639956 96,19.922103 C 96,19.341882 97.2375,19.009545 98.75,19.183578 C 100.93229,19.434677 101.5,20.016102 101.5,22 C 101.5,23.983898 100.93229,24.565323 98.75,24.816422 C 97.2375,24.990455 96,24.7011 96,24.173411 C 96,22.853301 93.321204,21.939512 91.5,22.638374 C 90.424474,23.051092 90,24.732838 90,28.581309 C 90,33.609738 90.202342,34.053275 93.204572,35.605788 L 96.409143,37.262937 L 90.667156,40.166419 C 87.509062,41.763335 85.137474,43.413421 85.396959,43.833277 C 85.656445,44.253133 88.148282,45.664327 90.934375,46.969263 C 93.720469,48.274199 95.99232,49.602453 95.982934,49.920937 C 95.973547,50.239422 93.498547,51.568106 90.482934,52.873569 C 87.46732,54.179031 85,55.547788 85,55.915251 C 85,56.282713 87.5875,57.859302 90.75,59.418782 L 96.5,62.2542 L 93.25,63.808527 L 90,65.362853 L 90,73.618068 L 90,81.873283 L 93.25,82.276604 C 95.0375,82.498431 93.35,82.699742 89.5,82.723962 C 85.65,82.748181 83.4,82.546774 84.5,82.27639 z M 88.5,71.5 C 88.5,65.875307 88.686616,65.397017 91.483419,63.853614 L 94.466838,62.207228 L 88.733419,59.395296 C 85.580039,57.848734 83,56.32085 83,56 C 83,55.67915 85.586032,54.148327 88.746738,52.598171 L 94.493477,49.779707 L 88.746738,46.873822 C 85.586032,45.275585 83,43.757366 83,43.5 C 83,43.242634 85.5875,41.719996 88.75,40.116358 L 94.5,37.200653 L 91.794072,35.959892 C 89.34107,34.835106 89.060657,34.148064 88.794072,28.609566 L 88.5,22.5 L 53.25,22.237207 L 18,21.974415 L 18,29.268041 L 18,36.561668 L 22.147282,38.030834 C 29.262993,40.551559 32.088459,49.32979 28.248446,56.986089 C 27.286801,58.903437 25.375,61.026021 24,61.702941 C 20.614449,63.369666 20.856099,64.986409 24.897883,67.710167 C 27.857225,69.704467 28.012145,70 26.098223,70 C 24.889575,70 22.573027,69.313444 20.95034,68.47432 L 18,66.94864 L 18,72.487112 L 18,78.025585 L 53.25,77.762793 L 88.5,77.5 L 88.5,71.5 z M 34.75,58.310674 C 33.768035,58.05406 33,56.910125 33,55.70417 C 33,53.559713 33.003511,53.559999 34.596693,55.834586 C 36.93198,59.168675 41.386712,58.485863 41.818581,54.727628 C 42.086931,52.392384 41.601361,51.731385 38.738975,50.535403 C 32.397145,47.885618 31.251437,43.838776 36.076369,41.130611 C 39.614941,39.144462 44,40.312693 44,43.241558 L 44,45.445012 L 42.403443,43.165608 C 40.224935,40.055353 36.5,40.576869 36.5,43.99213 C 36.5,45.88905 37.391011,46.903805 40.230635,48.240881 C 48.968317,52.35514 44.360076,60.82205 34.75,58.310674 z M 45.913059,58.074894 C 46.690241,57.58293 47.930295,55.902321 48.668734,54.340207 L 50.011349,51.5 L 49.447684,54.405143 C 49.090534,56.245905 49.363238,57.614213 50.19201,58.13983 C 51.028519,58.670355 50.238383,58.969374 48,58.969374 C 45.555422,58.969374 44.926107,58.699645 45.913059,58.074894 z M 57.719616,58.194449 C 58.542364,57.671687 58.683534,56.456406 58.153445,54.459762 C 57.486102,51.946129 56.812391,51.453218 53.68383,51.189635 C 51.657723,51.018934 50,50.546794 50,50.140435 C 50,49.734077 51.636416,49.592644 53.636481,49.82614 C 55.858804,50.085584 57.037123,49.869084 56.666508,49.269415 C 56.332958,48.72972 55.558792,46.985817 54.946139,45.394075 L 53.832225,42.5 L 52.497331,45.5 C 50.680441,49.583225 50.638054,47.802021 52.448973,43.467881 C 53.245909,41.560547 54.266129,40 54.716129,40 C 55.166129,40 56.825905,43.7125 58.404519,48.25 C 59.983134,52.7875 61.973922,57.0625 62.828494,57.75 C 64.134901,58.801001 63.754834,58.997562 60.44113,58.984687 C 58.189081,58.975937 57.0227,58.637259 57.719616,58.194449 z M 65.75,58.337719 C 66.609649,57.990843 67,55.230994 67,49.5 C 67,43.769006 66.609649,41.009157 65.75,40.662281 C 65.0625,40.384868 67.0875,40.122368 70.25,40.078947 C 74.736644,40.017346 76.439428,40.439428 78,42 C 81.654812,45.654812 79.765926,49.693982 73.96844,50.621037 C 70.274075,51.21179 70,51.483449 70,54.554484 C 70,56.855378 70.52941,57.991701 71.75,58.310674 C 72.7125,58.562202 71.475,58.784672 69,58.805051 C 66.525,58.825431 65.0625,58.615132 65.75,58.337719 z M 75.8,48.8 C 78.681106,45.918894 76.473909,41 72.3,41 C 70.240741,41 70,41.471014 70,45.5 C 70,49.528986 70.240741,50 72.3,50 C 73.565,50 75.14,49.46 75.8,48.8 z M 23.595012,58.895012 C 25.085517,57.248023 25.5,55.2706 25.5,49.806659 C 25.5,43.674053 25.212394,42.590404 23.139216,40.911647 C 19.890523,38.281015 13.870888,38.380198 11.404988,41.104988 C 9.9253832,42.739932 9.5,44.726186 9.5,50 C 9.5,58.549077 11.282489,61 17.5,61 C 20.489693,61 22.235754,60.396977 23.595012,58.895012 z M 15.25,56.310674 C 16.2125,56.059147 17.7875,56.059147 18.75,56.310674 C 19.7125,56.562202 18.925,56.767997 17,56.767997 C 15.075,56.767997 14.2875,56.562202 15.25,56.310674 z M 16,45.5 C 16,44.675 15.517857,44 14.928571,44 C 14.339286,44 14.564286,43.292857 15.428571,42.428571 C 16.857143,41 17.142857,41 18.571429,42.428571 C 19.435714,43.292857 19.660714,44 19.071429,44 C 18.482143,44 18,44.675 18,45.5 C 18,46.325 17.55,47 17,47 C 16.45,47 16,46.325 16,45.5 z M 99.312868,20.912868 C 97.985047,19.585047 96.513559,21.403906 97.553851,23.087132 C 98.037674,23.869975 98.530025,23.869975 99.312868,23.087132 C 100.09571,22.304289 100.09571,21.695711 99.312868,20.912868 z M 106,58.290565 C 98.876798,55.671409 98.29894,44.965253 105.09119,41.452842 C 110.32973,38.743889 117,39.795025 117,43.329495 C 117,45.4377 116.99462,45.43733 115.4433,43.222506 C 111.67959,37.849056 103,42.227803 103,49.5 C 103,56.772197 111.67959,61.150944 115.4433,55.777494 C 116.98917,53.570456 117,53.569644 117,55.660862 C 117,58.517407 110.70788,60.021624 106,58.290565 z M 121.15019,40.25 C 121.06759,37.3625 121.4133,35 121.91844,35 C 122.42358,35 123.88608,36.6875 125.16844,38.75 L 127.5,42.5 L 128.10809,38.5 C 128.70326,34.585062 128.71921,34.611644 128.85809,39.75 C 128.93614,42.6375 128.78138,45 128.51419,45 C 128.24699,45 126.78449,43.113049 125.26419,40.806775 L 122.5,36.613551 L 121.90019,41.056775 L 121.30039,45.5 L 121.15019,40.25 z M 138.8245,42.325823 C 139.25123,40.232864 139.50269,39.981402 139.79411,41.35622 C 140.01051,42.377141 139.75124,43.648761 139.21796,44.182042 C 138.59182,44.808179 138.45245,44.150644 138.8245,42.325823 z M 132.60699,42.418213 C 131.77064,40.238718 131.84578,37.212479 132.75,36.658728 C 133.1625,36.40611 133.52193,37.954552 133.54872,40.099711 C 133.60287,44.434016 133.48854,44.715492 132.60699,42.418213 z"
       id="path2390" />
    <path
       style="fill:#2c2c2c"
       d="M 88.270833,88.395833 C 88.603125,88.063542 89.465625,88.028015 90.1875,88.316886 C 90.985233,88.636112 90.748276,88.873069 89.583333,88.921053 C 88.529167,88.964474 87.938542,88.728125 88.270833,88.395833 z M 87.26375,85.282419 C 88.783812,85.052564 91.033812,85.058707 92.26375,85.296069 C 93.493687,85.533431 92.25,85.721493 89.5,85.713986 C 86.75,85.706478 85.743687,85.512273 87.26375,85.282419 z M 85.5,82.123355 L 88.5,81.483339 L 88.5,73.491669 C 88.5,65.65647 88.558413,65.467765 91.483419,63.853614 L 94.466838,62.207228 L 88.733419,59.395296 C 85.580039,57.848734 83,56.32085 83,56 C 83,55.67915 85.586032,54.148327 88.746738,52.598171 L 94.493477,49.779707 L 88.746738,46.873822 C 85.586032,45.275585 83,43.757366 83,43.5 C 83,43.242634 85.5875,41.719996 88.75,40.116358 L 94.5,37.200653 L 91.827145,35.974961 C 89.363659,34.84528 89.128663,34.210589 88.827145,27.872382 L 88.5,20.995494 L 92.190983,20.997747 C 94.221024,20.998986 96.160081,20.55 96.5,20 C 97.443604,18.473216 100.7129,18.809451 101.36163,20.5 C 102.82196,24.30557 98.619883,26.656766 96,23.5 C 95.315311,22.675 93.685211,22 92.377555,22 C 90.139457,22 90,22.350426 90,27.97432 C 90,33.685792 90.140989,34.021548 93.204572,35.605788 L 96.409143,37.262937 L 90.704572,40.1475 C 87.567057,41.734009 85,43.242634 85,43.5 C 85,43.757366 87.586032,45.275585 90.746738,46.873822 L 96.493477,49.779707 L 90.746738,52.598171 C 87.586032,54.148327 85,55.67915 85,56 C 85,56.32085 87.5875,57.859302 90.75,59.418782 L 96.5,62.2542 L 93.25,63.808527 L 90,65.362853 L 90,73.618068 L 90,81.873283 L 93.25,82.276604 C 95.0375,82.498431 93.35,82.698701 89.5,82.721648 C 85.094102,82.747909 83.611758,82.52619 85.5,82.123355 z M 100,22 C 100,20.9 99.576558,20 99.059017,20 C 97.716667,20 96.770798,21.820126 97.5,23 C 98.545118,24.691037 100,24.109085 100,22 z M 20.384859,67.768279 C 18.798186,66.540833 17.351747,65.196075 17.17055,64.779929 C 16.989352,64.363783 14.883802,63.157494 12.491549,62.099286 C 7.3900515,59.842652 5,55.967889 5,49.953952 C 5,41.726134 11.256955,36.234731 19.389243,37.325264 C 27.063425,38.354365 31.367406,46.208125 29.024799,54.907905 C 28.179243,58.048059 27.001784,59.656412 24.443379,61.165908 C 22.549521,62.283312 21,63.524661 21,63.924462 C 21,64.909006 25.140016,68.613844 27,69.293772 C 27.877588,69.614579 27.414869,69.874864 25.884859,69.921053 C 24.446531,69.964474 21.971531,68.995726 20.384859,67.768279 z M 23.75,58.345049 C 25.543221,56.387189 26,54.709094 26,50.079095 C 26,42.136305 23.593793,39 17.5,39 C 11.547023,39 9,42.172634 9,49.587806 C 9,56.176575 10.508323,59.650611 13.894491,60.861011 C 17.515365,62.155308 21.097782,61.240771 23.75,58.345049 z M 15.25,56.310674 C 16.2125,56.059147 17.7875,56.059147 18.75,56.310674 C 19.7125,56.562202 18.925,56.767997 17,56.767997 C 15.075,56.767997 14.2875,56.562202 15.25,56.310674 z M 15,44 C 13.875196,43.273096 14.375457,43.030626 17,43.030626 C 19.624543,43.030626 20.124804,43.273096 19,44 C 18.175,44.533156 17.275,44.969374 17,44.969374 C 16.725,44.969374 15.825,44.533156 15,44 z M 34.75,57.919901 C 33.7875,57.359296 33,56.147853 33,55.227804 C 33,53.917398 33.345919,54.048856 34.596693,55.834586 C 36.904782,59.129844 41.385934,58.488288 41.811437,54.801667 C 42.074747,52.520304 41.487734,51.779309 38.012715,50.006487 C 33.336532,47.620876 32.382909,46.021562 33.921935,43.145865 C 36.119736,39.039236 44,39.114061 44,43.241558 L 44,45.445012 L 42.403443,43.165608 C 40.225509,40.056171 36.5,40.576806 36.5,43.990606 C 36.5,45.830365 37.368495,46.891297 39.823483,48.050487 C 45.275949,50.62502 46.349725,53.650275 43,57 C 40.832335,59.167665 37.525364,59.536403 34.75,57.919901 z M 46.270914,57.75 C 47.180159,57.0625 48.401518,55.375 48.985044,54 C 50.01552,51.571823 50.029309,51.583462 49.46501,54.405143 C 49.09395,56.260564 49.356638,57.610027 50.19201,58.13983 C 51.032638,58.672967 50.27044,58.974846 48.05887,58.984687 C 45.092318,58.997888 44.845735,58.827609 46.270914,57.75 z M 57.871885,58.100341 C 58.901626,57.448042 59.007046,56.516624 58.294585,54.365654 C 57.511351,52.001014 56.703287,51.445738 53.6727,51.189635 C 51.652715,51.018934 50,50.546794 50,50.140435 C 50,49.734077 51.582932,49.5864 53.517628,49.812265 C 57.009144,50.21988 57.027272,50.201931 55.959788,47.394235 C 55.368281,45.838453 54.38942,43.969223 53.784542,43.240389 C 52.982601,42.274109 52.993751,41.606249 53.825715,40.774285 C 55.294303,39.305697 55.188117,39.126839 58.412432,48.5 C 59.926007,52.9 61.888408,57.0625 62.773323,57.75 C 64.138054,58.810274 63.784071,58.997676 60.44113,58.984687 C 57.819513,58.974501 56.959315,58.678417 57.871885,58.100341 z M 65.75,58.337719 C 66.609649,57.990843 67,55.230994 67,49.5 C 67,43.769006 66.609649,41.009157 65.75,40.662281 C 63.442514,39.73119 73.83971,39.988559 76.298516,40.923396 C 82.585526,43.313713 79.270789,51 71.952947,51 C 70.395634,51 70,51.694187 70,54.426676 C 70,56.849292 70.512772,57.987353 71.75,58.310674 C 72.7125,58.562202 71.475,58.784672 69,58.805051 C 66.525,58.825431 65.0625,58.615132 65.75,58.337719 z M 75.8,48.8 C 78.681106,45.918894 76.473909,41 72.3,41 C 70.240741,41 70,41.471014 70,45.5 C 70,49.528986 70.240741,50 72.3,50 C 73.565,50 75.14,49.46 75.8,48.8 z M 105.46528,58.048476 C 102.85737,56.991384 101.43445,55.165751 100.64859,51.868534 C 99.851828,48.525618 101.65985,43.25241 104.03944,41.978891 C 106.92454,40.434831 107.24412,40.821598 105.03896,43.188561 C 102.61238,45.793182 102.3179,52.514746 104.50383,55.402871 C 105.29595,56.44945 107.64414,57.635201 109.72202,58.037872 C 113.11449,58.695295 113.19388,58.775268 110.5,58.821615 C 108.85,58.850002 106.58438,58.502089 105.46528,58.048476 z M 115.09459,56.25 C 115.8313,55.2875 116.5614,54.3125 116.71703,54.083333 C 116.87266,53.854167 117,54.641667 117,55.833333 C 117,57.165267 116.37493,58 115.37756,58 C 113.98876,58 113.94801,57.747982 115.09459,56.25 z M 115.28261,43.099439 C 114.61305,42.017118 112.81305,40.936133 111.28261,40.697252 C 109.75218,40.45837 110.22466,40.390929 112.33259,40.547382 C 116.74237,40.874682 117.30407,41.237198 116.8384,43.455379 C 116.5513,44.822955 116.31546,44.769 115.28261,43.099439 z M 121.15019,40.25 C 121.06759,37.3625 121.34377,35 121.76393,35 C 122.18409,35 123.64659,36.820071 125.01393,39.044603 L 127.5,43.089206 L 128.09981,38.794603 L 128.69961,34.5 L 128.84981,39.75 C 128.93241,42.6375 128.78138,45 128.51419,45 C 128.24699,45 126.78449,43.113049 125.26419,40.806775 L 122.5,36.613551 L 121.90019,41.056775 L 121.30039,45.5 L 121.15019,40.25 z M 139.15789,42 C 139.15789,40.625 139.38487,40.0625 139.66228,40.75 C 139.93969,41.4375 139.93969,42.5625 139.66228,43.25 C 139.38487,43.9375 139.15789,43.375 139.15789,42 z M 132,39.559017 C 132,38.216476 132.36858,36.890242 132.81906,36.61183 C 133.26954,36.333417 133.44346,37.43186 133.20556,39.052813 C 132.68102,42.626701 132,42.912657 132,39.559017 z"
       id="path2388" />
    <path
       style="fill:#040404"
       d="M 88.270833,88.395833 C 88.603125,88.063542 89.465625,88.028015 90.1875,88.316886 C 90.985233,88.636112 90.748276,88.873069 89.583333,88.921053 C 88.529167,88.964474 87.938542,88.728125 88.270833,88.395833 z M 87.26375,85.282419 C 88.783812,85.052564 91.033812,85.058707 92.26375,85.296069 C 93.493687,85.533431 92.25,85.721493 89.5,85.713986 C 86.75,85.706478 85.743687,85.512273 87.26375,85.282419 z M 85.63287,82.28534 C 88.551441,81.917746 88.769564,81.613665 88.821646,77.839935 C 88.852394,75.611984 89.130102,73.536565 89.438776,73.227891 C 89.747449,72.919218 90,74.738155 90,77.269975 C 90,81.714051 90.11242,81.887234 93.25,82.276604 C 95.0375,82.498431 93.35,82.679926 89.5,82.679926 C 85.65,82.679926 83.909791,82.502362 85.63287,82.28534 z M 22.5,69.054643 C 21.4,68.604422 19.6,67.224631 18.5,65.988441 C 17.4,64.752251 14.661393,62.946804 12.414206,61.976336 C 4.9318183,58.744999 2.5219746,47.331091 8.0742946,41.420917 C 13.14573,36.022621 22.584174,36.113316 26.901439,41.601829 C 31.755358,47.772588 29.846418,58.421403 23.332168,61.512617 L 19.81984,63.179326 L 22.15992,65.699022 C 23.446964,67.084854 25.4,68.590982 26.5,69.045972 C 28.5,69.873227 28.5,69.873227 26.5,69.873227 C 25.4,69.873227 23.6,69.504865 22.5,69.054643 z M 20.712941,60.950225 C 24.476666,59.638183 26,56.389639 26,49.675453 C 26,41.195638 21.240307,36.775498 14.503293,38.998913 C 10.580192,40.293653 9,43.480228 9,50.096713 C 9,59.7076 13.176335,63.5775 20.712941,60.950225 z M 93.333333,62.5 C 93.333333,61.779875 93.933333,61.420923 94.666667,61.70233 C 95.4,61.983736 96,62.342688 96,62.5 C 96,62.657312 95.4,63.016264 94.666667,63.29767 C 93.933333,63.579077 93.333333,63.220125 93.333333,62.5 z M 37.270833,58.395833 C 37.603125,58.063542 38.465625,58.028015 39.1875,58.316886 C 39.985233,58.636112 39.748276,58.873069 38.583333,58.921053 C 37.529167,58.964474 36.938542,58.728125 37.270833,58.395833 z M 46.600056,58.234687 C 47.205087,57.830609 47.913718,56.836606 48.174792,56.02579 C 48.508932,54.988056 48.821683,55.210112 49.231117,56.77579 C 49.700177,58.569479 49.395369,58.997036 47.65638,58.984687 C 46.403049,58.975787 45.960681,58.661702 46.600056,58.234687 z M 58.436524,58.102706 C 58.741531,57.609194 58.711839,55.809194 58.370541,54.102706 C 57.804397,51.271983 57.388403,50.985264 53.625,50.831897 L 49.5,50.663794 L 53.178425,50.275799 C 56.84034,49.889545 56.851947,49.873469 55.764624,46.693902 C 55.1639,44.937256 54.18737,43.181238 53.594558,42.791641 C 52.838604,42.294826 52.876424,41.723576 53.721199,40.878801 C 55.020056,39.579944 55.35471,40.202862 59.100192,50.891154 C 60.13926,53.856289 61.49689,56.893789 62.117148,57.641154 C 63.019834,58.728825 62.709769,59 60.563428,59 C 59.088624,59 58.131517,58.596218 58.436524,58.102706 z M 66.8,57.8 C 67.512653,57.087347 68,53.655487 68,49.34969 C 68,43.499597 67.662031,41.902531 66.25,41.080099 C 64.905697,40.297114 65.659133,40.085338 69.5,40.166591 C 72.25,40.224766 73.4875,40.46738 72.25,40.705733 C 70.326883,41.076141 70,41.772659 70,45.5 C 70,49.227341 70.326883,49.923859 72.25,50.294267 C 74.487473,50.725223 74.486888,50.728394 72.144965,50.863818 C 70.017625,50.986833 69.826811,51.386739 70.17139,55 C 70.52353,58.692537 70.3625,59 68.076426,59 C 66.150317,59 65.866667,58.733333 66.8,57.8 z M 108.75,58.337719 C 109.4375,58.060307 110.5625,58.060307 111.25,58.337719 C 111.9375,58.615132 111.375,58.842105 110,58.842105 C 108.625,58.842105 108.0625,58.615132 108.75,58.337719 z M 33.345077,56.456872 C 32.445071,54.111495 33.416552,53.836105 34.796329,56.045478 C 35.568893,57.282551 35.635245,58 34.977089,58 C 34.405167,58 33.670761,57.305592 33.345077,56.456872 z M 41.917257,56.154606 C 43.193096,53.77068 40.991242,50.465602 37.552194,49.602456 C 34.252393,48.774259 32.576649,45.659556 34,43 C 34.588702,41.9 35.520368,41 36.070368,41 C 36.72425,41 36.736223,41.624355 36.104959,42.803882 C 34.885724,45.082044 35.675879,46.298714 39.720356,48.370818 C 43.858652,50.490989 45.439816,53.309679 44,56 C 43.411298,57.1 42.479632,58 41.929632,58 C 41.267436,58 41.263256,57.376619 41.917257,56.154606 z M 84.25,57.337719 C 82.819546,56.760519 82.550701,55 83.893011,55 C 84.384167,55 85.045044,55.675 85.361626,56.5 C 85.678209,57.325 85.838854,57.964474 85.718615,57.921053 C 85.598377,57.877632 84.9375,57.615132 84.25,57.337719 z M 103,56 C 100.07727,53.077272 100.24947,46.053714 103.31445,43.174314 C 106.22042,40.4443 107.70972,40.290281 105,43 C 103.59259,44.407407 103,46.333333 103,49.5 C 103,52.666667 103.59259,54.592593 105,56 C 106.1,57.1 106.55,58 106,58 C 105.45,58 104.1,57.1 103,56 z M 114,57.622445 C 114,57.414789 114.675,56.684689 115.5,56 C 116.72851,54.980429 117,55.048765 117,56.377555 C 117,57.2699 116.325,58 115.5,58 C 114.675,58 114,57.8301 114,57.622445 z M 94,50.059017 C 94,49.476558 94.45,49 95,49 C 95.55,49 96,49.198442 96,49.440983 C 96,49.683524 95.55,50.160081 95,50.5 C 94.45,50.839919 94,50.641476 94,50.059017 z M 75.992399,48.509159 C 76.672907,47.689196 77.029166,45.652082 76.784086,43.982239 C 76.505439,42.0837 76.743415,41.07881 77.419242,41.3002 C 80.177482,42.203753 78.686186,50 75.755111,50 C 75.194553,50 75.298828,49.344861 75.992399,48.509159 z M 42.710251,43 C 42.422595,41.9 42.59511,41 43.09362,41 C 43.592129,41 44,41.9 44,43 C 44,44.1 43.827484,45 43.616631,45 C 43.405779,45 42.997907,44.1 42.710251,43 z M 115.23207,43 C 114.19032,41.331894 114.23338,41 115.49153,41 C 116.33333,41 117,41.883896 117,43 C 117,44.1 116.88325,45 116.74055,45 C 116.59785,45 115.91903,44.1 115.23207,43 z M 121.116,40.25 C 121.0522,37.3625 121.35964,35 121.7992,35 C 122.23876,35 122.43782,36.6875 122.24156,38.75 C 121.62958,45.181117 121.23653,45.704929 121.116,40.25 z M 127.77367,44.25 C 127.58428,43.8375 127.71513,41.475 128.06446,39 L 128.69961,34.5 L 128.84981,39.75 C 128.98855,44.599934 128.62752,46.109641 127.77367,44.25 z M 139.15789,42 C 139.15789,40.625 139.38487,40.0625 139.66228,40.75 C 139.93969,41.4375 139.93969,42.5625 139.66228,43.25 C 139.38487,43.9375 139.15789,43.375 139.15789,42 z M 38.270833,40.395833 C 38.603125,40.063542 39.465625,40.028015 40.1875,40.316886 C 40.985233,40.636112 40.748276,40.873069 39.583333,40.921053 C 38.529167,40.964474 37.938542,40.728125 38.270833,40.395833 z M 109.75,40.337719 C 110.4375,40.060307 111.5625,40.060307 112.25,40.337719 C 112.9375,40.615132 112.375,40.842105 111,40.842105 C 109.625,40.842105 109.0625,40.615132 109.75,40.337719 z M 132.07895,39.583333 C 132.03553,38.529167 132.27187,37.938542 132.60417,38.270833 C 132.93646,38.603125 132.97198,39.465625 132.68311,40.1875 C 132.36389,40.985233 132.12693,40.748276 132.07895,39.583333 z M 93.333333,37.5 C 93.333333,36.779875 93.933333,36.420923 94.666667,36.70233 C 95.4,36.983736 96,37.342688 96,37.5 C 96,37.657312 95.4,38.016264 94.666667,38.29767 C 93.933333,38.579077 93.333333,38.220125 93.333333,37.5 z M 96.157895,22 C 96.157895,20.625 96.384868,20.0625 96.662281,20.75 C 96.939693,21.4375 96.939693,22.5625 96.662281,23.25 C 96.384868,23.9375 96.157895,23.375 96.157895,22 z M 89,21.90638 C 89,21.407871 89.9,21 91,21 C 92.1,21 93,21.172516 93,21.383369 C 93,21.594221 92.1,22.002093 91,22.289749 C 89.9,22.577405 89,22.40489 89,21.90638 z"
       id="path2386" />
  </g>
</svg>
