/* XPM */
static char * qsapecng_16_xpm[] = {
"16 16 43 1",
" 	c None",
".	c #8E8E8E",
"+	c #909090",
"@	c #8A8A8A",
"#	c #868686",
"$	c #858585",
"%	c #7F7F7F",
"&	c #5C5C5C",
"*	c #737373",
"=	c #828282",
"-	c #7C7C7C",
";	c #616161",
">	c #4C4C4C",
",	c #515151",
"'	c #6C6C6C",
")	c #6E6E6E",
"!	c #636363",
"~	c #5B5B5B",
"{	c #777777",
"]	c #797979",
"^	c #707070",
"/	c #9D9D9D",
"(	c #343434",
"_	c #353535",
":	c #565656",
"<	c #4B4B4B",
"[	c #393939",
"}	c #717171",
"|	c #4D4D4D",
"1	c #555555",
"2	c #787878",
"3	c #5E5E5E",
"4	c #7B7B7B",
"5	c #474747",
"6	c #757575",
"7	c #6B6B6B",
"8	c #606060",
"9	c #535353",
"0	c #898989",
"a	c #919191",
"b	c #888888",
"c	c #7A7A7A",
"d	c #5F5F5F",
"                ",
"                ",
"                ",
"                ",
" .+@##$%%&*     ",
" =       -      ",
";>,')! ~{{ ]^^/ ",
"( _:&<;[^}|     ",
"1,[2345&627{    ",
" 89      4      ",
" 0a+0bbbcd      ",
"         c      ",
"                ",
"                ",
"                ",
"                "};
