/* XPM */
static char * qsapecng_32_xpm[] = {
"32 32 91 1",
" 	c None",
".	c #868686",
"+	c #686868",
"@	c #797979",
"#	c #838383",
"$	c #818181",
"%	c #7E7E7E",
"&	c #787878",
"*	c #777777",
"=	c #757575",
"-	c #737373",
";	c #6E6E6E",
">	c #3A3A3A",
",	c #414141",
"'	c #434343",
")	c #656565",
"!	c #707070",
"~	c #6C6C6C",
"{	c #555555",
"]	c #6A6A6A",
"^	c #595959",
"/	c #8B8B8B",
"(	c #898989",
"_	c #8A8A8A",
":	c #989898",
"<	c #666666",
"[	c #282828",
"}	c #505050",
"|	c #4A4A4A",
"1	c #252525",
"2	c #5D5D5D",
"3	c #565656",
"4	c #4F4F4F",
"5	c #272727",
"6	c #626262",
"7	c #636363",
"8	c #7C7C7C",
"9	c #767676",
"0	c #5E5E5E",
"a	c #5A5A5A",
"b	c #6D6D6D",
"c	c #535353",
"d	c #696969",
"e	c #8D8D8D",
"f	c #151515",
"g	c #858585",
"h	c #3C3C3C",
"i	c #303030",
"j	c #343434",
"k	c #646464",
"l	c #8E8E8E",
"m	c #1A1A1A",
"n	c #2B2B2B",
"o	c #949494",
"p	c #939393",
"q	c #080808",
"r	c #525252",
"s	c #1C1C1C",
"t	c #212121",
"u	c #2A2A2A",
"v	c #474747",
"w	c #191919",
"x	c #515151",
"y	c #454545",
"z	c #7A7A7A",
"A	c #575757",
"B	c #2C2C2C",
"C	c #0D0D0D",
"D	c #4C4C4C",
"E	c #232323",
"F	c #7F7F7F",
"G	c #1F1F1F",
"H	c #7B7B7B",
"I	c #202020",
"J	c #929292",
"K	c #363636",
"L	c #484848",
"M	c #5B5B5B",
"N	c #1D1D1D",
"O	c #161616",
"P	c #848484",
"Q	c #676767",
"R	c #3D3D3D",
"S	c #A4A4A4",
"T	c #9F9F9F",
"U	c #969696",
"V	c #4D4D4D",
"W	c #808080",
"X	c #727272",
"Y	c #585858",
"Z	c #2E2E2E",
"                                ",
"                                ",
"                                ",
"                                ",
"                                ",
"                                ",
"                                ",
"                     .+         ",
"   @#####$%&&***=--;>,'         ",
"   -                )           ",
"   !                ~           ",
"   {]               @^     +/(_:",
" <[}|1  23  4  567 8~   9~0abcde",
" f]aghij|k l5  m 5/0%  n  bo 7p(",
" q   rs t> =uv wxy  zA@B        ",
" C@  DEF G%H I w   b]  [  J     ",
" >Kp G00krL7 EFt   M-  6MHA     ",
"  DNOA              Pr          ",
"   QNR              <           ",
"   ! +              2           ",
"   -        SSSTUUUUV           ",
"    _(gWWHHHH9==X!!YZ           ",
"                   z0           ",
"                    ;           ",
"                                ",
"                                ",
"                                ",
"                                ",
"                                ",
"                                ",
"                                ",
"                                "};
